<?xml version="1.0" encoding="UTF-8"?>
<svg id="Layer_1" data-name="Layer 1" xmlns="http://www.w3.org/2000/svg" viewBox="0 0 19.71 27.73">
  <defs>
    <style>
      .cls-1 {
        fill: none;
      }

      .cls-1, .cls-2, .cls-3, .cls-4, .cls-5 {
        stroke-width: 0px;
      }

      .cls-2 {
        fill: #ffe2b3;
      }

      .cls-3 {
        fill: #fff;
      }

      .cls-4 {
        fill: #ffe3b6;
      }

      .cls-5 {
        fill: #ffd15b;
      }
    </style>
  </defs>
  <path class="cls-3" d="m9.52,15.7h-.42.48-.07Zm0,0h-.42.48-.07Zm0,0h-.42.48-.07Zm0,0h-.42.48-.07Zm6.31.62c-.25-.14-.53-.27-.82-.39-.75-.3-1.63-.5-2.66-.58.03,0,.05,0,.08,0H.47v12.39h10.95c3.25,0,5.15-1.15,6.21-2.55.19-.25.35-.49.48-.75.55-1.03.75-2.09.75-2.91,0-1.5-.64-3.88-3.03-5.21Zm-6.5,10.98H3.61c-.86,0-1.26-.31-1.26-1.48v-3.11h0v-2.48c0-1.08,0-2.26.02-3.45,0-.42.19-.75.52-.92.19-.1.42-.16.67-.16h5.99q.05,0,0,0h.26c.19,0,.36.02.54.03,1.28.1,2.37.38,3.27.83.29.14.55.31.8.47,1.09.78,1.77,1.87,2.03,3.19l.08.57c.03.24.03.48.03.73,0,.37-.03.74-.08,1.09-.11.67-.32,1.28-.64,1.82,0,.02-.02.03-.03.05-.14.25-.31.47-.51.7-1.19,1.35-3.2,2.12-6,2.12h.02Zm.19-11.6h-.42.48-.07Zm0,0h-.42.48-.07Zm0,0h-.42.48-.07Z"/>
  <path class="cls-1" d="m8.82,15.7v.03c-.08.03-.15.07-.23.12-.02,0-.03.03-.05.03-.02.02-.03.03-.05.04-.02,0-.03.03-.04.03h0s0,0-.02.02c0,0-.02.02-.03.03,0,0-.02.02-.03.03h0s-.02.03-.03.03c0,0,0,.02-.02.02,0,0,0,0,0,.02-.03.03-.04.05-.07.08,0,0,0,0,0,.02,0,0,0,.02-.02.02,0,0,0,.02-.02.02,0,.02-.02.03-.03.05,0,0,0,.02-.02.03,0,.02-.02.03-.03.06,0,0,0,.02-.02.03,0,0,0,.02,0,.02v.02s0,.02-.02.03c0,0,0,.02,0,.03,0,.02-.02.03-.02.06v.02h0v.03s-.02.06-.03.09v.1s0,.08,0,.12v.02h0v.03h0v.03c0,.16.03.31.08.46h-1.58c-.41,0-.77.26-.91.64l-.27.78h-1.17c-.3,0-.57.14-.75.35,0,0-.02.03-.03.03s-.02.03-.03.03c0,.02-.02.03-.03.04,0,.02-.02.03-.03.04,0,0,0,.02-.02.03,0,.02-.02.03-.03.05,0,.02-.02.03-.03.05-.02.03-.03.08-.03.11,0,.02,0,.04,0,.06v.58h1.62v.03h-1.62v-.03h-.81c0-1.08,0-2.26.02-3.45,0-.65.47-1.09,1.19-1.09h5.26-.04Z"/>
  <path class="cls-1" d="m2.33,6.49v-.85c-.05-.03-.09-.06-.14-.1-.11-.11-.18-.25-.18-.42v-1.2s0-.07.03-.09c0,0,0,0,0-.02,0,0,0,0,0-.02,0,0,0,0,0-.02.03-.03.08-.06.14-.06h.17c-.06-.03-.11-.06-.16-.1h-.63c-.13.05-.26.09-.4.12.07.03.12.09.12.18v1.2c0,.23-.13.42-.31.53v.85c0,4.43,3.47,8.05,7.83,8.31v-1.34c-3.62-.25-6.49-3.28-6.49-6.97h0Z"/>
  <path class="cls-1" d="m8.82,11.55v1.34c-3.31-.25-5.93-3.03-5.93-6.4v-.85c.19-.1.31-.3.31-.53v-1.2c0-.1-.08-.19-.19-.19h-.17s.02,0,.03,0h0s.08-.05.12-.08h1.11c.05.04.1.08.16.1h-.17c-.1,0-.19.08-.19.19v1.2c0,.16.07.31.18.42.04.04.08.08.14.1v.85c0,2.64,2.02,4.81,4.59,5.06h.02Z"/>
  <path class="cls-1" d="m8.82,9.63v1.35c-2.26-.25-4.02-2.17-4.02-4.49v-.85c.19-.1.31-.3.31-.53v-1.2c0-.1-.08-.19-.19-.19h-.17.04s.08-.05.12-.08h1.11c.05.04.1.08.16.1h-.17c-.1,0-.19.08-.19.19v1.2c0,.16.07.31.18.42.04.04.08.08.14.1v.85c0,1.59,1.17,2.91,2.69,3.15v-.02Z"/>
  <path class="cls-1" d="m8.07,6.68c0,.15.13.28.28.28h.47v2.09c-1.2-.23-2.12-1.3-2.12-2.57v-.85c.19-.1.31-.3.31-.53v-1.2c0-.1-.08-.19-.19-.19h-.17s.02,0,.03,0h0s.08-.05.12-.08h2.22v.06h-.25s-.06.02-.08.03c0,0-.02.03-.03.03,0,.02,0,.03,0,.04v2.59h-.32c-.15,0-.28.13-.28.28h.02Z"/>
  <path class="cls-1" d="m10.13,3.63v2.77h-.17v-2.59c0-.06-.05-.12-.12-.12h-.25v-.06h.53Z"/>
  <path class="cls-1" d="m10.13,6.96v2.01c-.1.03-.2.06-.31.08v-2.09h.31Z"/>
  <path class="cls-1" d="m10.13,9.57v1.37c-.1.02-.21.03-.31.04v-1.35c.11-.02.21-.04.31-.07Z"/>
  <path class="cls-1" d="m10.13,11.51v1.35c-.1.02-.21.03-.31.03v-1.34c.1,0,.21-.03.31-.04Z"/>
  <path class="cls-1" d="m10.13,13.42v1.35c-.1,0-.21.02-.31.03v-1.34c.1,0,.21-.02.31-.03h0Z"/>
  <path class="cls-3" d="m9.82,14.8v-.08c-.21.07-.43.09-.66.08-.11,0-.23,0-.34-.03v.02c-4.36-.25-7.83-3.88-7.83-8.31v-.85s.03-.02.05-.03l-.08-.54c0-.18,0-.35.04-.51,0-.03,0-.06,0-.09,0-.24.03-.47.09-.69h-.34c-.09,0-.19,0-.29-.02v11.72h9.66v-.71c-.1,0-.21.02-.31.03Z"/>
  <g>
    <path class="cls-2" d="m9.1,14.75v.75h-.05C4.25,15.16.45,11.17.45,6.31v-1.17c.11.07.24.1.37.1.12,0,.22-.03.32-.08.02,0,.03-.02.05-.03v1.17c0,4.45,3.46,8.1,7.84,8.44h.06Z"/>
    <path class="cls-2" d="m18.96,5.13v1.17c0,4.72-3.58,8.62-8.17,9.16-.14.02-.28.03-.42.04h-.05v-.75h.05c.14,0,.28-.03.42-.04,4.18-.53,7.43-4.09,7.43-8.4v-1.17c.11.07.24.1.37.1.12,0,.22-.03.32-.08.02,0,.03-.02.05-.03h0Z"/>
  </g>
  <g>
    <path class="cls-2" d="m9.1,12.24v.75h-.05c-3.41-.33-6.08-3.2-6.08-6.67v-1.17c.11.07.24.1.37.1.12,0,.22-.03.32-.08.02,0,.03-.02.05-.03v1.17c0,3.07,2.33,5.6,5.32,5.93h.06Z"/>
    <path class="cls-2" d="m16.44,5.13v1.17c0,3.33-2.45,6.1-5.65,6.62-.14.03-.28.04-.42.05h-.05v-.75h.05c.14-.02.28-.03.42-.06,2.79-.51,4.91-2.94,4.91-5.87v-1.17c.11.07.24.1.37.1.12,0,.22-.03.32-.08.02,0,.03-.02.05-.03Z"/>
  </g>
  <g>
    <path class="cls-2" d="m9.1,9.7v.75h-.05c-2.01-.31-3.55-2.05-3.55-4.15v-1.17c.11.07.24.1.37.1.12,0,.22-.03.32-.08l.05-.03v1.17c0,1.68,1.21,3.08,2.81,3.39.02,0,.03,0,.05,0h0Z"/>
    <path class="cls-2" d="m13.92,5.13v1.17c0,1.94-1.33,3.59-3.14,4.06-.14.03-.27.07-.42.08h-.05v-.75s.03,0,.05,0c.14-.03.28-.06.42-.11,1.39-.45,2.39-1.75,2.39-3.28v-1.17c.11.07.24.1.37.1.12,0,.22-.03.32-.08.02,0,.03-.02.05-.03h0Z"/>
  </g>
  <path class="cls-1" d="m10.36,18.47v.04s-.08-.03-.13-.05h.13Z"/>
  <path class="cls-1" d="m10.31,17.26v.75h.05v.45h-.35q-.05,0,0,0c.08,0-.03,0-.04,0h-.48s-.04,0-.07,0h-.36v-.44h.05v-.75h-.05v-1.57h.51q.05,0,0,0h.26c.19,0,.36.02.54.03v1.53h-.06Z"/>
  <path class="cls-1" d="m9.1,17.26v.75h-.05v-.75h.05Z"/>
  <path class="cls-1" d="m10.01,18.46h-.64.03s.04,0,.07,0h.53Z"/>
  <path class="cls-2" d="m10.36,6.89v8.85c-.18-.02-.36-.03-.54-.03h-.26s-.03,0,0,0h-.51V6.89h1.32,0Z"/>
  <path class="cls-1" d="m10.36,17.26v.75h-.05v-.75h.05Z"/>
  <path class="cls-1" d="m11.44,20.13c0,.21-.03.42-.11.6h-1.6c-.07-.19-.11-.39-.11-.6,0-.66.36-1.23.91-1.53-.06-.03-.12-.06-.18-.08h0c.64.26,1.09.89,1.09,1.62h0Z"/>
  <g>
    <path class="cls-1" d="m9.63,20.13c0,.21.03.42.11.6h-1.7c-.07-.19-.11-.39-.11-.6v-.08h0v-.03c0-.05,0-.1.02-.16v-.12s.02-.08.03-.12v-.06s.02-.05.03-.08c0-.02,0-.03.02-.04,0-.02,0-.03.02-.04v-.02s0-.02.02-.03c0,0,0-.03.02-.03.02-.03.03-.05.04-.08,0,0,.02-.03.03-.03,0-.02.03-.04.04-.06,0,0,0-.02.02-.03,0,0,0-.02.02-.03,0,0,0-.02.02-.02.03-.03.06-.08.08-.11l.02-.02s.02-.02.03-.03c0,0,.02-.03.03-.03l.02-.02s.02-.02.03-.03c0,0,.02-.02.03-.03l.02-.02.02-.02s.03-.03.06-.05c.03-.02.05-.03.08-.05.03-.02.04-.03.07-.04.09-.06.19-.11.31-.15v.05c.1-.04.21-.08.32-.09h.66c.12.03.23.06.33.11v-.05s.03,0,.04.02c0,0,.02,0,.02,0,0,0,.02,0,.02,0,0,0,.03,0,.03.02,0,0,.02,0,.03,0s.02,0,.03,0c0,0,.02,0,.03,0-.54.3-.91.87-.91,1.53h.03Z"/>
    <path class="cls-1" d="m9.37,18.45c-.11.03-.22.05-.32.09v-.05s.08-.03.12-.04c0,0,.2,0,.2,0Z"/>
    <path class="cls-1" d="m10.36,18.51v.05c-.1-.04-.22-.08-.33-.1h.2s.08.03.14.05h0Z"/>
  </g>
  <path class="cls-1" d="m15.02,22.61H6.52l.36-1.03c.17-.5.64-.84,1.16-.85l.1.05h3.1l.09-.05h2.12c.54,0,1.03.34,1.2.86l.36,1.03h0Z"/>
  <path class="cls-1" d="m11.33,20.73l-.09.05h-3.1l-.1-.05h3.3Z"/>
  <path class="cls-3" d="m10.55,2.76v3.48h-1.7v-3.54s.02-.03.03-.05c.03-.03.07-.04.11-.04h1.4c.08,0,.15.07.15.15h0Z"/>
  <path class="cls-4" d="m9.86,2.61s-.08.02-.11.05c-.03.03-.04.06-.04.1v3.48h-.85v-3.48s0-.04,0-.06c0-.02.02-.03.03-.05.03-.03.07-.04.11-.04h.85Z"/>
  <path class="cls-4" d="m11.35,6.57c0,.2-.17.37-.37.37h-2.55c-.2,0-.37-.17-.37-.37s.17-.37.37-.37h2.55c.2,0,.37.17.37.37Z"/>
  <path class="cls-3" d="m13.55,5.28c-.43,0-.79-.35-.79-.78v-1.58c0-.14.11-.25.25-.25h1.07c.14,0,.25.11.25.25v1.58c0,.43-.36.78-.79.78h0Z"/>
  <path class="cls-4" d="m13.5,4.5v-1.58c0-.14.11-.25.25-.25h-.75c-.14,0-.25.11-.25.25v1.58c0,.43.36.78.79.78.14,0,.26-.03.37-.09-.25-.14-.42-.39-.42-.69Z"/>
  <path class="cls-3" d="m16.06,5.28c-.43,0-.79-.35-.79-.78v-1.58c0-.14.11-.25.25-.25h1.07c.14,0,.25.11.25.25v1.58c0,.43-.36.78-.79.78h0Z"/>
  <path class="cls-4" d="m16.02,4.5v-1.58c0-.14.11-.25.25-.25h-.75c-.14,0-.25.11-.25.25v1.58c0,.43.36.78.79.78.14,0,.26-.03.37-.09-.25-.14-.42-.39-.42-.69Z"/>
  <path class="cls-3" d="m18.58,5.28c-.43,0-.79-.35-.79-.78v-1.58c0-.14.11-.25.25-.25h1.07c.14,0,.25.11.25.25v1.58c0,.43-.36.78-.79.78h0Z"/>
  <path class="cls-2" d="m18.54,4.5v-1.58c0-.14.11-.25.25-.25h-.75c-.14,0-.25.11-.25.25v1.58c0,.43.36.78.79.78.14,0,.26-.03.37-.09-.25-.14-.42-.39-.42-.69Z"/>
  <path class="cls-3" d="m1.61,2.93v1.58c0,.3-.17.56-.42.69h0c-.06.03-.13.06-.19.08h-.27s-.05,0-.08,0c-.07-.02-.14-.04-.2-.08,0,0-.02,0-.03-.02-.05-.03-.09-.06-.14-.1l-.02-.02c-.14-.14-.23-.34-.23-.55v-1.58s0-.08.03-.12c0,0,0-.02,0-.02,0,0,0-.02.02-.02l.02-.02s.11-.08.18-.08h1.07c.14,0,.25.11.25.25h0Z"/>
  <path class="cls-3" d="m4.13,2.93v1.58c0,.3-.17.56-.42.69h0c-.06.03-.13.06-.19.08h-.27s-.05,0-.08,0c-.07-.02-.14-.04-.2-.08s-.13-.08-.19-.14c-.14-.14-.23-.34-.23-.55v-1.58c0-.14.11-.25.25-.25h1.07c.14,0,.25.11.25.25h0Z"/>
  <path class="cls-3" d="m6.65,2.93v1.58c0,.3-.17.56-.42.69h0s-.02,0-.03.02h-.02s-.05.02-.08.03h-.02s-.04,0-.06.02h-.27s-.05,0-.08,0c-.07-.02-.14-.04-.2-.08,0,0-.02,0-.03-.02-.05-.03-.09-.06-.14-.1l-.02-.02c-.14-.14-.23-.34-.23-.55v-1.58c0-.14.11-.25.25-.25h1.07c.14,0,.25.11.25.25v.03Z"/>
  <path class="cls-4" d="m6.23,5.19l-.03.02h-.02s-.05.02-.08.03h-.02s-.04,0-.06.02h-.17c-.14,0-.26-.03-.37-.09-.07-.03-.13-.08-.19-.14-.14-.14-.23-.34-.23-.55v-1.58c0-.14.11-.25.25-.25h.75c-.06,0-.12.03-.16.06h0c-.05.04-.08.12-.08.19v1.58c0,.28.14.52.36.66.02,0,.03.02.05.03v.03Z"/>
  <path class="cls-4" d="m3.71,5.19c-.06.03-.13.06-.19.08h-.17c-.14,0-.26-.03-.37-.09h0c-.07-.03-.13-.08-.19-.14-.14-.14-.23-.34-.23-.55v-1.58c0-.14.11-.25.25-.25h.75c-.06,0-.12.03-.16.06h0c-.05.04-.08.12-.08.19v1.58c0,.28.14.52.36.66.02,0,.03.02.05.03h-.02Z"/>
  <path class="cls-4" d="m1.19,5.19c-.06.03-.13.06-.19.08h-.17c-.14,0-.26-.03-.37-.09-.07-.03-.13-.08-.19-.14-.14-.14-.23-.34-.23-.55v-1.58s0-.08.03-.12c0,0,0-.02,0-.02,0,0,0-.02.02-.02l.02-.02s.11-.08.18-.08h.75c-.06,0-.12.03-.17.06-.05.04-.08.12-.08.19v1.58c0,.28.14.52.36.66.02,0,.03.02.05.03h0Z"/>
  <path class="cls-1" d="m8.04,20.73c-.53.02-.99.36-1.16.85l-.36,1.03h-2.13l.36-1.03c.18-.51.66-.86,1.2-.86h2.09Z"/>
  <path class="cls-1" d="m17.84,23.88v.55H3.7v-.55c0-.58.39-1.07.92-1.22h10.18l.21-.05h1.55c.7,0,1.27.57,1.27,1.27h0Z"/>
  <path class="cls-1" d="m15.02,22.61l-.21.05H4.63c.11-.03.23-.05.36-.05h10.04Z"/>
  <path class="cls-1" d="m4.62,22.66c-.53.15-.92.64-.92,1.22v.55H1.57v-.68s0-.05,0-.08c0-.03,0-.05.02-.08,0-.05.03-.1.04-.15,0-.03.02-.05.03-.07,0-.03.02-.05.03-.07,0,0,0-.03.02-.03,0-.02.02-.03.03-.05,0-.02.03-.03.03-.05,0-.02.03-.03.03-.05,0-.02.03-.03.03-.05.24-.28.58-.46.98-.46h1.55l.21.05h.03Z"/>
  <path class="cls-5" d="m1.67,23.38s-.02.05-.03.07c0-.03.02-.05.03-.07Z"/>
  <g>
    <path class="cls-1" d="m19.29,25.18H.48v-.75h1.08v.05h16.28v-.05h1.33c.05.25.08.49.11.75h0Z"/>
    <rect class="cls-1" x="3.7" y="24.44" width="14.14" height=".05"/>
    <path class="cls-1" d="m19.71,24.81c0,.2-.17.37-.37.37h-.05c-.03-.25-.07-.5-.11-.75h.16c.2,0,.37.17.37.37Z"/>
  </g>
  <path class="cls-4" d="m.37,2.39s.05-.02.03-.03c-.08-.12-.14-.31-.03-.57.19-.42.31-.64.31-.64,0,0,.06.25.23.48.16.22.25.5.11.73-.02.03,0,.05.03.03.18-.09.37-.27.4-.63,0-.11,0-.26-.07-.46-.08-.25-.18-.36-.23-.41-.02-.02-.04,0-.04.02.02.26-.08.33-.14.18-.03-.06-.03-.16-.03-.29,0-.21-.06-.43-.19-.61-.03-.04-.08-.09-.13-.13-.02-.02-.04,0-.04.03,0,.14,0,.55-.36,1.04C-.11,1.59.02,1.94.07,2.03c.08.18.2.29.32.35h-.02Z"/>
  <path class="cls-4" d="m3,2.37s.05-.02.03-.03c-.08-.12-.14-.31-.03-.57.19-.42.31-.64.31-.64,0,0,.06.25.23.48.16.22.25.5.11.73-.02.03,0,.05.03.03.18-.09.37-.27.4-.63,0-.11,0-.26-.07-.46-.08-.25-.18-.36-.23-.41-.02-.02-.04,0-.04.02.02.26-.08.33-.14.18-.03-.06-.03-.16-.03-.29,0-.21-.06-.43-.19-.61-.03-.04-.08-.09-.13-.13-.02-.02-.04,0-.04.03,0,.14,0,.55-.36,1.04-.33.46-.2.81-.15.9.08.18.2.29.32.35h-.02Z"/>
  <path class="cls-4" d="m5.58,2.38s.05-.02.03-.03c-.08-.12-.14-.31-.03-.57.19-.42.31-.64.31-.64,0,0,.06.25.23.48.16.22.25.5.11.73-.02.03,0,.05.03.03.18-.09.37-.27.4-.63,0-.11,0-.26-.07-.46-.08-.25-.18-.36-.23-.41-.02-.02-.04,0-.04.02.02.26-.08.33-.14.18-.03-.06-.03-.16-.03-.29,0-.21-.06-.43-.19-.61-.03-.04-.08-.09-.13-.13-.02-.02-.04,0-.04.03,0,.14,0,.55-.36,1.04-.33.46-.2.81-.15.9.08.18.2.29.32.35h-.02Z"/>
  <path class="cls-4" d="m19.13,1.97c.04-.09.17-.44-.15-.9-.36-.49-.37-.91-.36-1.04,0-.03-.03-.03-.04-.03-.05.03-.08.08-.13.13-.14.18-.19.4-.19.61,0,.13-.02.23-.03.29-.06.15-.15.08-.14-.18,0-.03-.03-.03-.04-.02-.06.05-.15.16-.23.41-.06.19-.08.35-.07.46.03.36.22.53.4.63.03,0,.04-.02.03-.03-.14-.23-.05-.51.11-.73.17-.23.23-.48.23-.48,0,0,.12.22.31.64.11.25.04.45-.03.57-.02.03,0,.05.03.03.12-.06.24-.17.32-.35h-.02Z"/>
  <path class="cls-2" d="m16.67,1.97c.04-.09.17-.44-.15-.9-.36-.49-.37-.91-.36-1.04,0-.03-.03-.03-.04-.03-.05.03-.08.08-.13.13-.14.18-.19.4-.19.61,0,.13-.02.23-.03.29-.06.15-.15.08-.14-.18,0-.03-.03-.03-.04-.02-.06.05-.15.16-.23.41-.06.19-.08.35-.07.46.03.36.22.53.4.63.03,0,.04-.02.03-.03-.14-.23-.05-.51.11-.73.17-.23.23-.48.23-.48,0,0,.12.22.31.64.11.25.04.45-.03.57-.02.03,0,.05.03.03.12-.06.24-.17.32-.35h-.02Z"/>
  <path class="cls-4" d="m14.21,2.02c.04-.09.17-.44-.15-.9-.36-.49-.37-.91-.36-1.04,0-.03-.03-.03-.04-.03-.05.03-.08.08-.13.13-.14.18-.19.4-.19.61,0,.13-.02.23-.03.29-.06.15-.15.08-.14-.18,0-.03-.03-.03-.04-.02-.06.05-.15.16-.23.41-.06.19-.08.35-.07.46.03.36.22.53.4.63.03,0,.04-.02.03-.03-.14-.23-.05-.51.11-.73.17-.23.23-.48.23-.48,0,0,.12.22.31.64.11.25.04.45-.03.57-.02.03,0,.05.03.03.12-.06.24-.17.32-.35h-.02Z"/>
  <path class="cls-4" d="m9.38,2.38s.05-.02.03-.03c-.08-.12-.14-.31-.03-.57.19-.42.31-.64.31-.64,0,0,.06.25.23.48.16.22.25.5.11.73-.02.03,0,.05.03.03.18-.09.37-.27.4-.63,0-.11,0-.26-.07-.46-.08-.25-.18-.36-.23-.41-.02-.02-.04,0-.04.02.02.26-.08.33-.14.18-.03-.06-.03-.16-.03-.29,0-.21-.06-.43-.19-.61-.03-.04-.08-.09-.13-.13-.02-.02-.04,0-.04.03,0,.14,0,.55-.36,1.04-.33.46-.2.81-.15.9.08.18.2.29.32.35h-.02Z"/>
</svg>