<?xml version="1.0" encoding="UTF-8"?>
<svg id="Layer_1" data-name="Layer 1" xmlns="http://www.w3.org/2000/svg" viewBox="0 0 2537.482253695 2993.1078317436">
  <defs>
    <style>
      .cls-1 {
        fill: none;
      }

      .cls-1, .cls-2, .cls-3, .cls-4, .cls-5, .cls-6 {
        stroke-width: 0px;
      }

      .cls-2 {
        fill: #fff;
      }

      .cls-3 {
        fill: #fff3de;
      }

      .cls-4 {
        fill: #ffe5c2;
      }

      .cls-5 {
        fill: #ffc344;
      }

      .cls-6 {
        fill: #ffd15b;
      }
    </style>
  </defs>
  <path class="cls-2" d="m1285.7979411532,1692.0587775603c-.8167819703-.1451023028-1.6335639407-.2722606568-2.4682898599-.3991974805-.5987962207-.0906058654-1.1975924414-.1814332611-1.8147756715-.2540951776-.4536939179-.0726619165-.9073878358-.1271583539-1.3610817536-.1814332611-.2720391265-.0363309583-.5445213136-.0726619165-.8347259192-.1087713446-.5626867927-.0726619165-1.1251520551-.1453238331-1.7057827967-.1998202705-.5081903553-.0544964374-1.0163807106-.1087713446-1.5245710659-.1451023028-1.0524901386-.1087713446-2.1049802772-.1995987402-3.157691946-.2722606568-.2902046057-.0181654791-.5808522718-.0544964374-.8710568775-.0544964374-.8710568775-.0726619165-1.7602792341-.1269368237-2.6495015908-.163267782-1.0163807106-.0542749072-2.0509269003-.0906058654-3.1031955086-.1087713446-1.216200981-.0363309583-2.4319589016-.0544964374-3.6477168222-.0544964374-.943718794,0-1.8874375881.0181654791-2.8311563821.0363309583-.6896236164,0-1.3792472328.0181654791-2.05070537.0544964374-1.6151769313.0542749072-3.2303538626.1269368237-4.8273653147.2538736474-.6532926581.0363309583-1.3065853162.0908273957-1.9598779744.1634893122-.1269368237,0-.2540951776,0-.3812535316.0181654791-.5806307416.0363309583-1.143096004.0906058654-1.7057827967.163267782-.8347259192.0724403863-1.6512863593.163267782-2.4680683297.2722606568-.1995987402,0-.3812535316.0363309583-.5624652625.0544964374-.2361512287.0179439489-.471859397.0542749072-.7080106258.0906058654-1.8692721089.2359296985-3.7019917294.5079688251-5.53493288.8167819703-.8167819703.1269368237-1.6515078896.2720391265-2.4680683297.4355284387h27.6571635117c8.1664905219,0,16.2784846064.0542749072,24.2996512952.1812117309-1.0885995666-.2175426891-2.1958076729-.4173629596-3.3207381978-.5987962207Zm0,0c-.8167819703-.1451023028-1.6335639407-.2722606568-2.4682898599-.3991974805-.5987962207-.0906058654-1.1975924414-.1814332611-1.8147756715-.2540951776-.4536939179-.0726619165-.9073878358-.1271583539-1.3610817536-.1814332611-.2720391265-.0363309583-.5445213136-.0726619165-.8347259192-.1087713446-.5626867927-.0726619165-1.1251520551-.1453238331-1.7057827967-.1998202705-.5081903553-.0544964374-1.0163807106-.1087713446-1.5245710659-.1451023028-1.0524901386-.1087713446-2.1049802772-.1995987402-3.157691946-.2722606568-.2902046057-.0181654791-.5808522718-.0544964374-.8710568775-.0544964374-.8710568775-.0726619165-1.7602792341-.1269368237-2.6495015908-.163267782-1.0163807106-.0542749072-2.0509269003-.0906058654-3.1031955086-.1087713446-1.216200981-.0363309583-2.4319589016-.0544964374-3.6477168222-.0544964374-.943718794,0-1.8874375881.0181654791-2.8311563821.0363309583-.6896236164,0-1.3792472328.0181654791-2.05070537.0544964374-1.6151769313.0542749072-3.2303538626.1269368237-4.8273653147.2538736474-.6532926581.0363309583-1.3065853162.0908273957-1.9598779744.1634893122-.1269368237,0-.2540951776,0-.3812535316.0181654791-.5806307416.0363309583-1.143096004.0906058654-1.7057827967.163267782-.8347259192.0724403863-1.6512863593.163267782-2.4680683297.2722606568-.1995987402,0-.3812535316.0363309583-.5624652625.0544964374-.2361512287.0179439489-.471859397.0542749072-.7080106258.0906058654-1.8692721089.2359296985-3.7019917294.5079688251-5.53493288.8167819703-.8167819703.1269368237-1.6515078896.2720391265-2.4680683297.4355284387h27.6571635117c8.1664905219,0,16.2784846064.0542749072,24.2996512952.1812117309-1.0885995666-.2175426891-2.1958076729-.4173629596-3.3207381978-.5987962207Zm0,0c-.8167819703-.1451023028-1.6335639407-.2722606568-2.4682898599-.3991974805-.5987962207-.0906058654-1.1975924414-.1814332611-1.8147756715-.2540951776-.4536939179-.0726619165-.9073878358-.1271583539-1.3610817536-.1814332611-.2720391265-.0363309583-.5445213136-.0726619165-.8347259192-.1087713446-.5626867927-.0726619165-1.1251520551-.1453238331-1.7057827967-.1998202705-.5081903553-.0544964374-1.0163807106-.1087713446-1.5245710659-.1451023028-1.0524901386-.1087713446-2.1049802772-.1995987402-3.157691946-.2722606568-.2902046057-.0181654791-.5808522718-.0544964374-.8710568775-.0544964374-.8710568775-.0726619165-1.7602792341-.1269368237-2.6495015908-.163267782-1.0163807106-.0542749072-2.0509269003-.0906058654-3.1031955086-.1087713446-1.216200981-.0363309583-2.4319589016-.0544964374-3.6477168222-.0544964374-.943718794,0-1.8874375881.0181654791-2.8311563821.0363309583-.6896236164,0-1.3792472328.0181654791-2.05070537.0544964374-1.6151769313.0542749072-3.2303538626.1269368237-4.8273653147.2538736474-.6532926581.0363309583-1.3065853162.0908273957-1.9598779744.1634893122-.1269368237,0-.2540951776,0-.3812535316.0181654791-.5806307416.0363309583-1.143096004.0906058654-1.7057827967.163267782-.8347259192.0724403863-1.6512863593.163267782-2.4680683297.2722606568-.1995987402,0-.3812535316.0363309583-.5624652625.0544964374-.2361512287.0179439489-.471859397.0542749072-.7080106258.0906058654-1.8692721089.2359296985-3.7019917294.5079688251-5.53493288.8167819703-.8167819703.1269368237-1.6515078896.2720391265-2.4680683297.4355284387h27.6571635117c8.1664905219,0,16.2784846064.0542749072,24.2996512952.1812117309-1.0885995666-.2175426891-2.1958076729-.4173629596-3.3207381978-.5987962207Zm0,0c-.8167819703-.1451023028-1.6335639407-.2722606568-2.4682898599-.3991974805-.5987962207-.0906058654-1.1975924414-.1814332611-1.8147756715-.2540951776-.4536939179-.0726619165-.9073878358-.1271583539-1.3610817536-.1814332611-.2720391265-.0363309583-.5445213136-.0726619165-.8347259192-.1087713446-.5626867927-.0726619165-1.1251520551-.1453238331-1.7057827967-.1998202705-.5081903553-.0544964374-1.0163807106-.1087713446-1.5245710659-.1451023028-1.0524901386-.1087713446-2.1049802772-.1995987402-3.157691946-.2722606568-.2902046057-.0181654791-.5808522718-.0544964374-.8710568775-.0544964374-.8710568775-.0726619165-1.7602792341-.1269368237-2.6495015908-.163267782-1.0163807106-.0542749072-2.0509269003-.0906058654-3.1031955086-.1087713446-1.216200981-.0363309583-2.4319589016-.0544964374-3.6477168222-.0544964374-.943718794,0-1.8874375881.0181654791-2.8311563821.0363309583-.6896236164,0-1.3792472328.0181654791-2.05070537.0544964374-1.6151769313.0542749072-3.2303538626.1269368237-4.8273653147.2538736474-.6532926581.0363309583-1.3065853162.0908273957-1.9598779744.1634893122-.1269368237,0-.2540951776,0-.3812535316.0181654791-.5806307416.0363309583-1.143096004.0906058654-1.7057827967.163267782-.8347259192.0724403863-1.6512863593.163267782-2.4680683297.2722606568-.1995987402,0-.3812535316.0363309583-.5624652625.0544964374-.2361512287.0179439489-.471859397.0542749072-.7080106258.0906058654-1.8692721089.2359296985-3.7019917294.5079688251-5.53493288.8167819703-.8167819703.1269368237-1.6515078896.2720391265-2.4680683297.4355284387h27.6571635117c8.1664905219,0,16.2784846064.0542749072,24.2996512952.1812117309-1.0885995666-.2175426891-2.1958076729-.4173629596-3.3207381978-.5987962207Zm682.0107299215,66.9652665855c-27.3304064175-15.3347658123-56.7662361727-29.3992772667-88.4884794662-41.9394391854-80.4852567263-31.8673455963-175.5613807413-53.9532452697-287.4968416345-62.2466726153,2.7221635073-.3812535316,5.4261615355-.7804510121,8.1119940845-1.1980355019H306.9621745317v1339.4679349005h1184.4315518085c350.8141698675,0,556.0836410207-124.2031406249,671.1765723298-275.7732401558,19.9262014286-26.2054758926,37.1484048289-53.2456777044,51.9390923882-80.5942496011,59.7967697648-110.4835517439,80.2493270278-226.1391698456,80.2493270278-313.9380256954,0-162.440588081-69.3970039568-419.358282426-326.9500470111-563.7782721456Zm-702.9896430189,1187.0449439712h-617.9674471138c-92.698883081,0-136.4710418869-32.9384442745-136.4710418869-159.9364103233,0-6.6964158934,0-30.6876971038.0181654791-68.7979862059.0181654791-20.9789130974.0363309583-46.2222831866.0544964374-75.2044190239.0179439489-1.7784447133.0179439489-3.5750549057,0-5.3898305772.0724403863-51.7029411594.1448807726-114.8572231407.2902046057-186.5951370733v-.0181654791c.1089928748-62.8640773756.2722606568-132.2974122907.4900248761-206.4125671573l.1814332611-61.1035766113c.3630880524-116.8352665942.8710568775-243.3068768086,1.5425150148-372.5372030187,0-44.8975323912,20.8335892643-80.2493270278,55.8951792952-100.0485916326,20.0351943034-11.3241824679,44.734043079-17.5487389643,72.8449005086-17.5487389643h623.1215695227c8.1664905219,0,16.2784846064.0542749072,24.2996512952.1812117309q.0181654791-.0181654791.0363309583,0c5.970682849.0908273957,11.9232002189.2179857496,17.8212211513.3994190107.0181654791,0,.0363309583-.0181654791.0726619165-.0181654791.0181654791,0,.0544964374,0,.0726619165.0181654791,3.5568894265.0906058654,7.0956133739.1995987402,10.6343373213.3267570942,20.0715252616.6894020862,39.7617969917,1.7784447133,59.0347057621,3.2482978115,138.8121733928,10.5982278933,256.8270884796,41.3043120064,353.4093965511,89.4321982602,31.0510066865,15.461702636,59.8694316813,32.7202369947,86.4741050544,51.7029411594,117.8153163465,84.0239806736,191.8219213987,201.5852018425,220.2411489131,344.8437085487l9.2010367116,61.1035766113c2.685832549,25.6607330488,4.0287488235,52.0294767234,4.0287488235,79.0878440143,0,40.6510193483-3.0305335921,79.6868617653-9.0920438368,116.9803688971-11.7415454275,72.4459245583-34.8254388021,138.3766449541-69.0341374346,196.9576567983-1.0524901386,1.7966101924-2.1231457563,3.6113858639-3.2121883834,5.3898305772-15.9880584704,26.6591698105-34.3172484468,51.7392721177-54.9694044501,75.2044190239-128.4680406772,145.9804486833-346.5497128757,228.7343965292-649.0182322701,228.7343965292Zm20.9789130974-1254.0102105567c-.8167819703-.1451023028-1.6335639407-.2722606568-2.4682898599-.3991974805-.5987962207-.0906058654-1.1975924414-.1814332611-1.8147756715-.2540951776-.4536939179-.0726619165-.9073878358-.1271583539-1.3610817536-.1814332611-.2720391265-.0363309583-.5445213136-.0726619165-.8347259192-.1087713446-.5626867927-.0726619165-1.1251520551-.1453238331-1.7057827967-.1998202705-.5081903553-.0544964374-1.0163807106-.1087713446-1.5245710659-.1451023028-1.0524901386-.1087713446-2.1049802772-.1995987402-3.157691946-.2722606568-.2902046057-.0181654791-.5808522718-.0544964374-.8710568775-.0544964374-.8710568775-.0726619165-1.7602792341-.1269368237-2.6495015908-.163267782-1.0163807106-.0542749072-2.0509269003-.0906058654-3.1031955086-.1087713446-1.216200981-.0363309583-2.4319589016-.0544964374-3.6477168222-.0544964374-.943718794,0-1.8874375881.0181654791-2.8311563821.0363309583-.6896236164,0-1.3792472328.0181654791-2.05070537.0544964374-1.6151769313.0542749072-3.2303538626.1269368237-4.8273653147.2538736474-.6532926581.0363309583-1.3065853162.0908273957-1.9598779744.1634893122-.1269368237,0-.2540951776,0-.3812535316.0181654791-.5806307416.0363309583-1.143096004.0906058654-1.7057827967.163267782-.8347259192.0724403863-1.6512863593.163267782-2.4680683297.2722606568-.1995987402,0-.3812535316.0363309583-.5624652625.0544964374-.2361512287.0179439489-.471859397.0542749072-.7080106258.0906058654-1.8692721089.2359296985-3.7019917294.5079688251-5.53493288.8167819703-.8167819703.1269368237-1.6515078896.2720391265-2.4680683297.4355284387h27.6571635117c8.1664905219,0,16.2784846064.0542749072,24.2996512952.1812117309-1.0885995666-.2175426891-2.1958076729-.4173629596-3.3207381978-.5987962207Zm0,0c-.8167819703-.1451023028-1.6335639407-.2722606568-2.4682898599-.3991974805-.5987962207-.0906058654-1.1975924414-.1814332611-1.8147756715-.2540951776-.4536939179-.0726619165-.9073878358-.1271583539-1.3610817536-.1814332611-.2720391265-.0363309583-.5445213136-.0726619165-.8347259192-.1087713446-.5626867927-.0726619165-1.1251520551-.1453238331-1.7057827967-.1998202705-.5081903553-.0544964374-1.0163807106-.1087713446-1.5245710659-.1451023028-1.0524901386-.1087713446-2.1049802772-.1995987402-3.157691946-.2722606568-.2902046057-.0181654791-.5808522718-.0544964374-.8710568775-.0544964374-.8710568775-.0726619165-1.7602792341-.1269368237-2.6495015908-.163267782-1.0163807106-.0542749072-2.0509269003-.0906058654-3.1031955086-.1087713446-1.216200981-.0363309583-2.4319589016-.0544964374-3.6477168222-.0544964374-.943718794,0-1.8874375881.0181654791-2.8311563821.0363309583-.6896236164,0-1.3792472328.0181654791-2.05070537.0544964374-1.6151769313.0542749072-3.2303538626.1269368237-4.8273653147.2538736474-.6532926581.0363309583-1.3065853162.0908273957-1.9598779744.1634893122-.1269368237,0-.2540951776,0-.3812535316.0181654791-.5806307416.0363309583-1.143096004.0906058654-1.7057827967.163267782-.8347259192.0724403863-1.6512863593.163267782-2.4680683297.2722606568-.1995987402,0-.3812535316.0363309583-.5624652625.0544964374-.2361512287.0179439489-.471859397.0542749072-.7080106258.0906058654-1.8692721089.2359296985-3.7019917294.5079688251-5.53493288.8167819703-.8167819703.1269368237-1.6515078896.2720391265-2.4680683297.4355284387h27.6571635117c8.1664905219,0,16.2784846064.0542749072,24.2996512952.1812117309-1.0885995666-.2175426891-2.1958076729-.4173629596-3.3207381978-.5987962207Zm0,0c-.8167819703-.1451023028-1.6335639407-.2722606568-2.4682898599-.3991974805-.5987962207-.0906058654-1.1975924414-.1814332611-1.8147756715-.2540951776-.4536939179-.0726619165-.9073878358-.1271583539-1.3610817536-.1814332611-.2720391265-.0363309583-.5445213136-.0726619165-.8347259192-.1087713446-.5626867927-.0726619165-1.1251520551-.1453238331-1.7057827967-.1998202705-.5081903553-.0544964374-1.0163807106-.1087713446-1.5245710659-.1451023028-1.0524901386-.1087713446-2.1049802772-.1995987402-3.157691946-.2722606568-.2902046057-.0181654791-.5808522718-.0544964374-.8710568775-.0544964374-.8710568775-.0726619165-1.7602792341-.1269368237-2.6495015908-.163267782-1.0163807106-.0542749072-2.0509269003-.0906058654-3.1031955086-.1087713446-1.216200981-.0363309583-2.4319589016-.0544964374-3.6477168222-.0544964374-.943718794,0-1.8874375881.0181654791-2.8311563821.0363309583-.6896236164,0-1.3792472328.0181654791-2.05070537.0544964374-1.6151769313.0542749072-3.2303538626.1269368237-4.8273653147.2538736474-.6532926581.0363309583-1.3065853162.0908273957-1.9598779744.1634893122-.1269368237,0-.2540951776,0-.3812535316.0181654791-.5806307416.0363309583-1.143096004.0906058654-1.7057827967.163267782-.8347259192.0724403863-1.6512863593.163267782-2.4680683297.2722606568-.1995987402,0-.3812535316.0363309583-.5624652625.0544964374-.2361512287.0179439489-.471859397.0542749072-.7080106258.0906058654-1.8692721089.2359296985-3.7019917294.5079688251-5.53493288.8167819703-.8167819703.1269368237-1.6515078896.2720391265-2.4680683297.4355284387h27.6571635117c8.1664905219,0,16.2784846064.0542749072,24.2996512952.1812117309-1.0885995666-.2175426891-2.1958076729-.4173629596-3.3207381978-.5987962207Z"/>
  <path class="cls-1" d="m1210.1216627323,1692.4763620501v3.4660620308c-8.6746808772,3.4117871237-16.9136117853,7.6401346875-24.6627393476,12.612602305-1.8692721089,1.1978139717-3.7203787387,2.4319589016-5.5169889311,3.7022132596-2.0143744118,1.415578191-3.9742523861,2.8674873404-5.8980209325,4.391836876-1.578845973,1.2341449299-3.1395264669,2.5225647671-4.6822630119,3.8473155624-.4355284387.3628665222-.8710568775.7438985236-1.3065853162,1.1433175343-.471859397.3991974805-.9618842732.8347259192-1.4337436702,1.270254358-.8892223566.7804510121-1.7602792341,1.5970114522-2.6131706325,2.4135718922-.798394961.7622855329-1.5967899219,1.5245710659-2.3954064131,2.3229660268-.4175844898.3991974805-.8349474495.8167819703-1.2341449299,1.2341449299-.8528913984.8528913984-1.6876173176,1.7241698061-2.5041777577,2.6133921627-.6716796675.7075675653-1.3431378047,1.4153566608-1.9600995046,2.1413112355-.4536939179.4900248762-.8892223566.9800497523-1.3065853162,1.4700746284-2.5407302462,2.8854312893-4.9361366593,5.8616899742-7.2227717278,8.9285545246-.4173629596.5626867927-.8167819703,1.1251520551-1.2159794508,1.6876173176-.5263558344.6898451466-1.0161591803,1.4155781911-1.5061840565,2.1235888168-.5081903553.7257330444-.9982152314,1.4516876191-1.4882401076,2.1958076729-1.1251520551,1.6694518385-2.213973152,3.3572906863-3.2485193417,5.0812389621-.5987962207.9982152314-1.1975924414,1.9780434535-1.7602792341,2.9944241641-1.1612614832,1.9962089326-2.2684695894,4.0287488235-3.320959728,6.0976196727-.5263558344,1.0161591803-1.0524901386,2.0688708492-1.5425150148,3.1034170389-.3630880524.7438985236-.7080106258,1.4698530982-1.0345461897,2.213973152-.2359296985.471859397-.4355284387.943718794-.6532926581,1.415578191-.471859397,1.0706556177-.943718794,2.1413112355-1.3974127119,3.2301323323-.4536939179,1.0524901386-.8710568775,2.1233672866-1.3065853162,3.1940229043-.7622855329,1.9962089326-1.5061840565,4.0289703538-2.1960292031,6.0612887144-.1630462517.471859397-.3083700848.943718794-.471859397,1.4155781911-.1448807726.4536939179-.2902046057.9073878358-.4355284387,1.3610817536-.2175426891.6896236164-.4355284387,1.3610817536-.6349056488,2.0688708492-.9800497523,3.2846287697-1.8511066298,6.6239755071-2.6133921627,9.9994316725-.163267782.7804510121-.3449225733,1.5606804939-.4900248761,2.3409099757-.1814332611.8349474495-.3449225733,1.6698948989-.4898033459,2.5227862973-.0908273957.4536939179-.1816547913.9073878358-.2543167079,1.3792472328-.1269368237.7075675653-.2538736474,1.4153566608-.3628665222,2.1413112355-.0726619165.4900248762-.1453238331.9982152314-.2177642194,1.4882401076-.6532926581,4.2465130429-1.0888210969,8.5656880024-1.3429162745,12.9209723898-.0544964374.6171832301-.0906058654,1.2523104091-.1087713446,1.8874375881v.1634893122c-.0363309583.7075675653-.0544964374,1.4153566608-.0726619165,2.1413112355-.0181654791.3628665222-.0363309583.7259545747-.0181654791,1.0888210969-.0363309583,1.0524901386-.0544964374,2.1233672866-.0544964374,3.1940229043,0,17.3854711824,3.1031955086,34.0633747994,8.783673752,49.5071334866h-170.425866872c-44.262183682,0-83.6790581003,28.0384170433-98.2154289517,69.8506978747l-29.3268368804,84.3507377678h-126.5626591402c-32.3028740351,0-61.1578515184,14.7359695916-80.2311615486,37.8380284453-1.0524901386,1.2884198371-2.0868147981,2.5952266836-3.0850300295,3.9381429581-.9982152314,1.3247507954-1.9600995046,2.685832549-2.9035967684,4.0832452609-.943718794,1.3792472328-1.8329411507,2.7766599447-2.7042195584,4.2101820846-.8710568775,1.4337436702-1.7057827967,2.8856528195-2.5041777577,4.3555059177-.5081903553.9255533149-.9982152314,1.8511066298-1.4700746284,2.7948254238-.943718794,1.8690505787-1.8329411507,3.7746536459-2.6676670699,5.7165876714-.8347259192,1.9235470161-1.6151769313,3.9015904696-2.3229660268,5.8980209325-1.4337436702,3.9924178653-2.6313361116,8.0938286053-3.5750549057,12.3042322202-.471859397,2.1049802772-.8892223566,4.2283475638-1.2157579206,6.3698803295-.3267570942,2.0141528815-.5808522718,4.0469143027-.7804510121,6.0973981425-.2177642194,2.0509269003-.3630880524,4.1195762192-.435749969,6.1884470684-.036109428,1.3974127119-.0724403863,2.7948254238-.0724403863,4.1922381357v45.3693917882h174.744598771v4.0832452609h-174.7627642501v-4.0832452609h-87.99845459c.3630880524-116.8352665942.8710568775-243.3068768086,1.5425150148-372.5372030187,0-70.5584869702,51.4853984703-117.5973305969,128.7400798037-117.5973305969h568.4242041992Z"/>
  <path class="cls-1" d="m508.620259821,696.7995347947v-91.301359604c-5.498823452-2.9762586849-10.525787507-6.7327468517-14.8812934247-11.1245837277-11.632774083-11.6326633178-18.8192148525-27.6934944699-18.8192148525-45.4237774605v-129.2483809241c0-3.5568894265.9073878358-6.9142908779,2.4862338088-9.8542186046.3267570942-.5807415067.6714581373-1.1433175343,1.0343246595-1.6877280827.3810320013-.5625760276.7804510121-1.0888210969,1.1978139717-1.5970114522.4175844898-.5262450693.8712784077-1.0162699455,1.3429162745-1.4699638633,3.7383226876-3.7565989319,8.9106105757-6.0613994796,14.6090327679-6.0613994796h18.1838661433c-6.496595623-2.7765491796-12.3585071274-6.6056992629-17.4579115687-11.1971348791h-67.9676908913c-13.896148477,5.8941441534-28.22516703,10.203017957-42.9928154449,12.9038037968,7.3255617561,3.1789588484,12.4544297184,10.469851123,12.4544297184,18.9636525647v129.2483809241c0,24.4268096491-13.6289830156,45.659707159-33.7005082772,56.5301957091v91.3195250831c0,478.1026728173,374.8056726081,870.2756511286,846.0122200266,898.1869098179v-144.837131149c-391.465410746-27.6753289908-701.5014029113-354.9521330961-701.5014029113-753.349778669Z"/>
  <path class="cls-1" d="m1210.1216627323,1243.8455176509v145.0732823777c-357.7285715106-27.5483921671-640.3980478303-327.4219064081-640.3980478303-692.119265234v-91.3195250831c20.0715252616-10.87048855,33.7005082772-32.1033860599,33.7005082772-56.5301957091v-129.2483809241c0-11.4148990985-9.255533149-20.6703214823-20.6705430126-20.6703214823h-18.2020316225c.1814332611-.0907166306.3810320013-.163267782.5624652625-.2721498917.1998202705-.0907166306.3810320013-.1633785471.5626867927-.2722606568.8710568775-.3629772873,1.7057827967-.7803402469,2.540508716-1.2158686857.4536939179-.1995987402.9073878358-.4355284387,1.3429162745-.6714581373-.0179439489,0-.0179439489-.0181654791-.036109428-.0181654791,4.555104658-2.4317373714,8.7471212635-5.3717758632,12.4856654813-8.7472320286h119.9202966237c5.0814604924,4.5914356162,10.9613159457,8.4205856995,17.4581330989,11.1971348791h-18.2022531527c-11.4147883334,0-20.6700999521,9.2554223839-20.6700999521,20.6703214823v129.2483809241c0,17.7302829906,7.1864407696,33.7911141427,18.8189933223,45.4237774605,4.3738929271,4.391836876,9.4006354518,8.1483250427,14.8994589038,11.1245837277v91.301359604c0,284.9742768674,217.9545138446,519.9331191279,495.8874522452,547.0459828563Z"/>
  <path class="cls-1" d="m1210.1216627323,1036.6526102467v145.8172916664c-244.1960991652-26.8587685507-434.8020411131-234.4328187214-434.8020411131-485.6703671185v-91.3195250831c20.0713037314-10.87048855,33.700286747-32.1033860599,33.700286747-56.5301957091v-129.2483809241c0-11.4148990985-9.2553116188-20.6703214823-20.6703214823-20.6703214823h-18.1840876736c.5081903553-.2177642194.9800497523-.489914111,1.4882401076-.7076783304.0181654791,0,.0363309583,0,.0363309583-.0181654791.5624652625-.2359296985,1.106986576-.5081903553,1.6331208802-.7803402469.1998202705-.0907166306.3991974805-.1815440262.5808522718-.2904261359.4173629596-.1995987402.8347259192-.4173629596,1.2520888788-.635127179,0,0-.0181654791,0-.0181654791-.0181654791,4.5369391788-2.4317373714,8.7291773146-5.3717758632,12.4858870116-8.7472320286h119.9021311446c5.0994044413,4.5914356162,10.9610944155,8.4205856995,17.476298578,11.1971348791h-18.2022531527c-11.4150098636,0-20.6703214823,9.2554223839-20.6703214823,20.6703214823v129.2483809241c0,17.7302829906,7.1866622998,33.7911141427,18.8192148525,45.4237774605,4.3555059177,4.391836876,9.3824699727,8.1483250427,14.8810718944,11.1245837277v91.301359604c0,171.4419152872,126.0363033058,313.9380256954,290.2916670583,339.853075452Z"/>
  <path class="cls-1" d="m1129.1463811299,717.7239514547c0,16.8592261131,13.683479453,30.5425948009,30.5607602801,30.5425948009h50.4145213223v226.3025483927c-130.3915876933-25.189095182-229.1878689168-140.1187587091-229.1878689168-277.7695598536v-91.3195250831c20.0713037314-10.87048855,33.7000652168-32.1033860599,33.7000652168-56.5301957091v-129.2483809241c0-11.4148990985-9.2550900885-20.6703214823-20.6700999521-20.6703214823h-18.2022531527c.1995987402-.0907166306.3810320013-.163267782.5626867927-.2721498917.19937721-.0907166306.3810320013-.1633785471.5624652625-.2722606568.8712784077-.3629772873,1.706004327-.7803402469,2.5407302462-1.2158686857.4536939179-.1995987402.9073878358-.4355284387,1.3429162745-.6714581373-.0181654791,0-.0181654791-.0181654791-.0363309583-.0181654791,4.555104658-2.4317373714,8.7473427937-5.3717758632,12.4856654813-8.7472320286h240.1673503417v6.0432340004h-26.4411840609c-3.4299526028,0-6.5149826323,1.3792472328-8.7652867426,3.6295513431-1.1253735854,1.106986576-2.0509269003,2.4499028505-2.6676670699,3.9561976721-.6353487092,1.4699638633-.9800497523,3.1033062738-.9800497523,4.8272545496v280.8728661274h-34.8256603324c-16.8772808271,0-30.5607602801,13.683479453-30.5607602801,30.5608710452Z"/>
  <path class="cls-1" d="m1351.7829364561,387.8339767169v299.3291036926h-18.4561268001v-280.8728661274c0-6.8597944405-5.5533198894-12.4130035648-12.3950596159-12.4130035648h-26.45934954v-6.0432340004h57.310535956Z"/>
  <path class="cls-1" d="m1351.7829364561,748.2665462556v217.4827652127c-11.0519218111,3.6295513431-22.4122137071,6.5876445489-34.0270438412,8.81978318v-226.3025483927h34.0270438412Z"/>
  <path class="cls-1" d="m1351.7829364561,1029.4842241912v148.0132101044c-11.2151895931,2.0504838398-22.5575375402,3.7201572085-34.0270438412,4.9724676176v-145.8354571455c11.5421682175-1.8147756715,22.9026816437-4.2284583289,34.0270438412-7.1502205764Z"/>
  <path class="cls-1" d="m1351.7829364561,1239.453680775v145.9988356926c-11.2696860305,1.4335221399-22.6120339776,2.5952266836-34.0270438412,3.4662835611v-145.0732823777c11.4513408219-1.106986576,22.7936887689-2.5770612045,34.0270438412-4.391836876Z"/>
  <path class="cls-1" d="m1351.7829364561,1446.9734560385v145.3453215043c-11.2696860305,1.1251520551-22.6301994567,2.0143744118-34.0270438412,2.6676670699v-144.837131149c11.4150098636-.7986164912,22.7573578106-1.8511066298,34.0270438412-3.1758574252Z"/>
  <path class="cls-2" d="m1317.755892615,1594.9864446126v-8.7457920821c-22.6439343312,7.087195225-46.3751390476,10.1899476732-71.2091212656,9.2530963164-12.3507535692-.0383247304-24.4921610679-.8446947797-36.4251086171-2.4140149527v1.9067107184c-471.2065474185-27.9112586893-846.0122200266-420.0842370007-846.0122200266-898.1869098179v-91.3195250831c1.7469874201-.9462663917,3.4257435284-1.9980919396,5.0703839807-3.0966603668l-7.8971097581-58.7718601402c-.7142134723-18.9314199157.9034002916-37.2264942362,4.8523982311-54.8851121963-.448155662-3.3360237839-.8963113241-6.6721583329-1.3446885164-10.0081821168-.976948329-25.8936720892,2.4308512504-50.5905270927,10.1797572825-74.1024168781-.0327864745-.0012184163-.0655729491-.000996886-.0985809538-.0022153023-6.2141445754-.0193838954-12.3713558809-.2483353916-18.4785013537-.6602708605-5.966916835.2538736474-11.9925391819.292419908-18.091488036.0623607607-10.4478088648-.0324541792-20.7370020826-.6464252209-30.8857451324-1.7743464039v1267.459532553h1044.3670680066v-77.3820612176c-11.2696860305,1.1251520551-22.6301994567,2.0143744118-34.0270438412,2.6676670699Z"/>
  <g>
    <path class="cls-3" d="m1239.6559897759,1590.4949380506v80.7221648959c-1.8022779564-.1194840887-3.6045559128-.2392603145-5.3827800292-.3826996483-518.3593700981-36.4961081375-928.8938827138-468.0837375916-928.8938827138-993.4600956961v-126.7193030418c11.8708633364,7.0121676776,25.6642738287,11.1044246799,40.4427183994,11.1044246799,12.4241016544,0,24.1506419513-2.8956632929,34.6281426098-7.9931641806,1.9944153362-.957333395,3.9407229925-1.9863864568,5.8392163085-3.1112604994v126.7193030418c0,480.9349962768,374.2971094479,876.3852619966,847.9838053961,912.7139755551,1.8022779564.1434393338,3.5805020728.2868786676,5.3827800292.4066548934Z"/>
    <path class="cls-3" d="m2305.667320214,550.6550045603v126.7193030418c0,510.0601923336-386.9371089824,931.7157434349-883.813173304,989.2720177131-14.9227676102,1.7469800738-29.94175058,3.1349236074-45.0569489095,4.188077983-1.8022779564.1434393338-3.6045559128.2632155596-5.4068338691.3826996483v-80.7221648959c1.8022779564-.1197762258,3.6045559128-.2632155596,5.4068338691-.4066548934,15.1151983295-1.1486832191,30.1341812993-2.6806503608,45.0569489095-4.5710697684,452.1555758313-57.1014167573,802.9271498261-442.5721318397,802.9271498261-908.1429057867v-126.7193030418c11.8708633364,7.0121676776,25.6642738287,11.1044246799,40.4430117389,11.1044246799,12.4238083149,0,24.1503486118-2.8956632929,34.6278492703-7.9931641806,1.9944153362-.957333395,3.9166691526-2.010341702,5.8151624686-3.1112604994Z"/>
  </g>
  <g>
    <path class="cls-3" d="m1239.6559897759,1318.4136006274v80.889851612c-1.8022779564-.1676867161-3.5805020728-.3353734322-5.3827800292-.5267232564-368.0252173604-35.7543719489-656.6299354406-345.600130886-656.6299354406-721.4024213809v-126.7193030418c11.8711566759,7.0121676776,25.6645671682,11.1044246799,40.4430117389,11.1044246799,12.4238083149,0,24.1506419513-2.8956632929,34.6278492703-7.9931641806,1.9944153362-.957333395,3.9169624921-2.010341702,5.8154558081-3.1112604994v126.7193030418c0,331.3128721083,252.3910754127,605.0456607619,575.7436186233,640.4649514157,1.7782241165.1913498241,3.5805020728.3826996483,5.3827800292.5743416096Z"/>
    <path class="cls-3" d="m2033.4271334412,550.6550045603v126.7193030418c0,360.2943366942-265.2950805073,659.9931504148-611.5729865311,715.6108026579-14.8746599303,2.3931874189-29.8936429002,4.3318094539-45.0569489095,5.791618723-1.8022779564.1913498241-3.6045559128.3590365403-5.4068338691.5267232564v-80.889851612c1.8022779564-.1916419613,3.6045559128-.3829917854,5.4068338691-.5743416096,15.1873598492-1.6514512303,30.206342819-3.853288825,45.0569489095-6.5573101567,301.4371483341-54.7324767208,530.6629092134-318.1504873732,530.6629092134-633.9076412591v-126.7193030418c11.8708633364,7.0121676776,25.6883276686,11.1044246799,40.4430117389,11.1044246799,12.4238083149,0,24.1506419513-2.8956632929,34.6278492703-7.9931641806,1.9947086757-.957333395,3.941016332-1.9863864568,5.8392163085-3.1112604994Z"/>
  </g>
  <g>
    <path class="cls-3" d="m1239.6559897759,1044.7046211504v81.6555430457c-1.8022779564-.2632155596-3.6045559128-.5264311192-5.3827800292-.813601924-217.4989272429-34.1747864541-384.3900420073-222.0877632556-384.3900420073-448.17225467v-126.7193030418c11.8952105158,7.0121676776,25.6886210081,11.1044246799,40.4673589183,11.1044246799,12.4235149754,0,24.1506419513-2.8956632929,34.6035020909-7.9931641806,1.9947086757-.957333395,3.9413096715-1.9863864568,5.8398029876-3.1112604994v126.7193030418c0,181.5233533609,130.8212084574,333.0838074273,303.4793780105,366.3012604864,1.7782241165.3829917854,3.5805020728.7179270119,5.3827800292,1.0290530619Z"/>
    <path class="cls-3" d="m1761.163186168,550.6550045603v126.7193030418c0,210.1697366516-144.25439803,387.3852358038-339.3090392579,438.7191351518-14.7303368909,3.8529966879-29.7733737006,7.0359768542-45.0569489095,9.429164273-1.8022779564.2871708048-3.6045559128.5503863644-5.4068338691.8137479926v-81.6317338691c1.8022779564-.3111260499,3.6045559128-.6460612765,5.4068338691-1.0290530619,15.3797905685-2.9435737832,30.4225340387-6.8444809615,45.0569489095-11.6308557992,149.8536626185-48.821081772,258.3986686007-189.3010664036,258.3986686007-354.6704046873v-126.7193030418c11.8949171763,7.0121676776,25.6883276686,11.1044246799,40.4673589183,11.1044246799,12.4235149753,0,24.1503486118-2.8956632929,34.6035020909-7.9931641806,1.9947086757-.957333395,3.941016332-1.9863864568,5.8395096481-3.1112604994Z"/>
  </g>
  <path class="cls-1" d="m1376.790598377,1991.5875907582v4.7728688773c-4.5914356162-1.9237685463-9.291642577-3.6477168222-14.0826769335-5.1904533672,4.7185939702.1089928748,9.4006354518.2543167079,14.0826769335.4175844898Z"/>
  <path class="cls-1" d="m1371.3826023207,1862.1760528172v80.7211864248c1.8147756715-.1089928748,3.6113858639-.1998202705,5.4079960563-.308591615v48.9989431313c-4.6820414817-.163267782-9.3640829633-.308591615-14.0826769335-.4175844898h-.2357081683c-7.8036239997-.2538736474-15.6617444367-.4173629596-23.5559743018-.5261343042q-.0179439489-.0363309583-.036109428,0c-1.4700746284-.3267570942-2.9401492569-.5806307416-4.3920584062-.7986164912-1.0885995666-.19937721-2.1958076729-.3810320013-3.2846287697-.5261343042-.7804510121-.1269368237-1.578845973-.2359296985-2.3954064131-.3267570942-.599017751-.1087713446-1.1978139717-.1814332611-1.7966101924-.2538736474-.3628665222-.0363309583-.7259545747-.0908273957-1.1072081062-.1453238331-.7438985236-.0908273957-1.4880185773-.1814332611-2.2684695894-.2540951776-.671236607-.0724403863-1.3429162745-.1451023028-2.0141528815-.1995987402-1.3974127119-.1271583539-2.7766599447-.2540951776-4.1740726566-.3447010431-.3810320013-.0363309583-.7802294818-.0726619165-1.1614830134-.0726619165-1.1433175343-.1089928748-2.3229660268-.1816547913-3.5026145194-.2177642194-1.3429162745-.0726619165-2.7221635073-.1269368237-4.1195762192-.1451023028-1.5967899219-.0544964374-3.2121883834-.0726619165-4.8271437845-.0726619165-1.2520888788,0-2.4862338088.0181654791-3.7385442179.0544964374-.9255533149,0-1.8329411507.0181654791-2.7221635073.0724403863-2.1413112355.0544964374-4.2828440012.163267782-6.3880458086.3267570942-.8710568775.0544964374-1.742113755.1269368237-2.5950051534.2177642194-.1634893122,0-.3447010431,0-.5081903553.0181654791-.7620640027.0542749072-1.5061840565.1269368237-2.2503041103.2177642194-1.106986576.0908273957-2.1958076729.2177642194-3.2848503.3628665222-.2538736474,0-.4900248761.0363309583-.7438985236.0726619165-.308591615.0181654791-.6171832301.0726619165-.9255533149.1089928748-2.4862338088.3265355639-4.899805701.671236607-7.3317646027,1.0885995666-1.0888210969.1634893122-2.1958076729.3630880524-3.2666848208.5626867927h-35.8054885544v-47.8011291596c1.7966101924.1087713446,3.5750549057.1995987402,5.3718866283.308591615v-80.7211864248c-1.7968317226-.1089928748-3.593441915-.1998202705-5.3718866283-.3449225733v-169.3547681938h30.5428163312c8.1664905219,0,16.2784846064.0542749072,24.2996512952.1812117309q.0181654791-.0181654791.0363309583,0c5.970682849.0908273957,11.9232002189.2179857496,17.8212211513.3994190107.0181654791,0,.0363309583-.0181654791.0726619165-.0181654791.0181654791,0,.0544964374,0,.0726619165.0181654791,3.5568894265.0906058654,7.0956133739.1995987402,10.6343373213.3267570942,20.0715252616.6894020862,39.7617969917,1.7784447133,59.0347057621,3.2482978115v165.1990825465c-1.7966101924.1451023028-3.5932203848.2359296985-5.4079960563.3449225733Z"/>
  <path class="cls-1" d="m1239.6480983529,1862.1760528172v80.7211864248c-1.7968317226-.1089928748-3.5752764359-.1998202705-5.3718866283-.308591615v-80.757517383c1.7784447133.1451023028,3.5750549057.2359296985,5.3718866283.3449225733Z"/>
  <path class="cls-1" d="m1338.8801295454,1990.6438719642c-10.6166149026-.1814332611-21.3599450987-.2540951776-32.1761587416-.2540951776h-36.6222705248c1.070877148-.1995987402,2.177863724-.3991974805,3.2666848208-.5626867927,2.4319589016-.4173629596,4.8455307939-.7620640027,7.3317646027-1.0885995666.3083700848-.0363309583.6169616999-.0908273957.9255533149-.1089928748.2538736474-.0363309583.4900248762-.0726619165.7438985236-.0726619165,1.0890426271-.1451023028,2.177863724-.2720391265,3.2848503-.3628665222.7441200538-.0908273957,1.4882401076-.1634893122,2.2503041103-.2177642194.1634893122-.0181654791.3447010431-.0181654791.5081903553-.0181654791.8528913984-.0908273957,1.7239482759-.163267782,2.5950051534-.2177642194,2.1052018074-.1634893122,4.2467345731-.2722606568,6.3880458086-.3267570942.8892223566-.0542749072,1.7966101924-.0724403863,2.7221635073-.0724403863,1.2523104091-.0363309583,2.486455339-.0544964374,3.7385442179-.0544964374,1.6149554011,0,3.2303538626.0181654791,4.8271437845.0726619165,1.3974127119.0181654791,2.7766599447.0724403863,4.1195762192.1451023028,1.1796484925.036109428,2.3592969851.1087713446,3.5026145194.2177642194.3812535316,0,.7804510121.0363309583,1.1614830134.0726619165,1.3974127119.0906058654,2.7766599447.2175426891,4.1740726566.3447010431.671236607.0544964374,1.3429162745.1271583539,2.0141528815.1995987402.7804510121.0726619165,1.5245710659.163267782,2.2684695894.2540951776.3812535316.0544964374.744341584.1089928748,1.1072081062.1453238331.5987962207.0724403863,1.1975924414.1451023028,1.7966101924.2538736474.8165604401.0908273957,1.6149554011.1998202705,2.3954064131.3267570942,1.0888210969.1451023028,2.1960292031.3267570942,3.2846287697.5261343042,1.4519091493.2179857496,2.9219837778.471859397,4.3920584062.7986164912Z"/>
  <path class="cls-3" d="m1376.790598377,739.8642368003v956.767810897c-19.2729087704-1.4698530982-38.9631805005-2.5588957253-59.0347057621-3.2482978115-3.5387239474-.1271583539-7.0774478948-.2361512287-10.6343373213-.3267570942-.0181654791-.0181654791-.0544964374-.0181654791-.0726619165-.0181654791-.0363309583,0-.0544964374.0181654791-.0726619165.0181654791-5.8980209325-.1814332611-11.8505383023-.308591615-17.8212211513-.3994190107q-.0181654791-.0181654791-.0363309583,0c-8.0211666888-.1269368237-16.1331607733-.1812117309-24.2996512952-.1812117309h-30.5428163312v-952.6121252498h142.5143866524Z"/>
  <path class="cls-1" d="m1376.790598377,1861.8311302439v80.757517383c-1.7966101924.1087713446-3.5932203848.1995987402-5.4079960563.308591615v-80.7211864248c1.8147756715-.1089928748,3.6113858639-.1998202705,5.4079960563-.3449225733Z"/>
  <path class="cls-1" d="m1493.8493431451,2171.1540131717c0,22.9266303032-4.1093932114,44.9441298389-11.6306182768,65.2862228991h-172.8506002725c-7.497464565-20.3420930602-11.6065644369-42.3595925959-11.6065644369-65.2862228991,0-71.2928545543,39.5779535206-133.3243776202,98.0437448233-165.6084525296-6.127569048-3.374476059-12.4719159947-6.437826068-19.0081069817-9.1181842916v-.0715735983c68.7271007415,28.4786965746,117.0521451445,96.0143754216,117.0521451445,174.7982104196Z"/>
  <path class="cls-5" d="m1129.8851179767,2236.4402360709c-1.4414703577,0-2.8835273944.0239552452-4.3012372517.0715735983l-.1440297-.0715735983h4.4452669517Z"/>
  <g>
    <path class="cls-1" d="m1340.7491801241,1991.0251254958l-71.4113783686-.4900248762c.2540951776-.0544964374.4900248761-.0908273957.7438985236-.1453238331h36.6222705248c10.8162136429,0,21.559543839.0726619165,32.1761587416.2540951776q.0181654791-.0363309583.036109428,0c.6169616999.1087713446,1.2341449299.2359296985,1.8329411507.3812535316Z"/>
    <path class="cls-1" d="m1297.7570292699,2171.1595548439c0,22.9206255926,4.1195762192,44.9338633495,11.6148301341,65.2776492679h-183.9276915336c-7.5311418127-20.3619513975-11.6325525527-42.3570236753-11.6325525527-65.2776492679,0-1.4153566608.0181654791-2.8309348519.0724403863-4.2101820846-.0179439489-.4900248761,0-.9618842732.0181654791-1.4519091493.0181654791-.943718794.0544964374-1.8874375881.0906058654-2.812990903v-.2175426891c.0363309583-.8349474495.0726619165-1.6696733687.1453238331-2.486455339.3447010431-5.7526970994.9255533149-11.4329538125,1.7784447133-17.040548609.1089928748-.6535141884.1998202705-1.3247507954.2904261359-1.9600995046.1451023028-.9618842732.308591615-1.8874375881.4900248761-2.8309348519.0906058654-.6169616999.2177642194-1.2159794508.3267570942-1.8147756715.19937721-1.1251520551.4173629596-2.2323601614.6530711279-3.320959728.1998202705-1.0345461897.4355284387-2.0690923794.6535141884-3.0852515597.9979937012-4.4644987925,2.1594767146-8.8561141383,3.4478965517-13.1934545769.2722606568-.9434972638.5626867927-1.8147756715.8528913984-2.7221635073.1816547913-.5987962207.3812535316-1.1978139717.5808522718-1.7966101924.2177642194-.635127179.3991974805-1.2523104091.6171832301-1.8690505787.9073878358-2.6860540793,1.905381537-5.3718866283,2.9033752382-8.0034442701.5808522718-1.3971911817,1.1253735854-2.8127693727,1.7423352852-4.2101820846.5987962207-1.4335221399,1.2159794508-2.849100331,1.8508850996-4.2465130429.272482187-.6353487092.5445213136-1.2520888788.8531129286-1.8692721089.4355284387-.9800497523.8892223566-1.9419340255,1.3792472328-2.9217622475.635127179-1.3610817536,1.3429162745-2.7584944656,2.0325398909-4.1014107401,1.3974127119-2.7221635073,2.8674873404-5.4079960563,4.4097808249-8.0395536982.7441200538-1.3429162745,1.5245710659-2.6313361116,2.3229660268-3.9379214279,1.3610817536-2.2866350685,2.812990903-4.5006082206,4.3012310105-6.7145813726.6530711279-.9800497523,1.3065853162-1.9237685463,1.9778219233-2.8856528195.6353487092-.943718794,1.2886413673-1.8874375881,1.9964304629-2.812990903.5263558344-.7257330444,1.0524901386-1.4698530982,1.5967899219-2.213973152,3.0309766526-4.0469143027,6.2068340777-7.9666702514,9.5639032338-11.7778763858.5626867927-.6532926581,1.1253735854-1.2884198371,1.7423352852-1.9417124952.8167819703-.9618842732,1.706004327-1.8874375881,2.5952266836-2.812990903,1.0704340875-1.1796484925,2.1776421937-2.3227444966,3.3027942489-3.448118082.5261343042-.5624652625,1.0888210969-1.1067650458,1.6333424104-1.6331208802,1.0706556177-1.0527116688,2.1231457563-2.0509269003,3.1758574252-3.0670860806,1.1249305249-1.0706556177,2.2866350685-2.1415327657,3.4660620309-3.1758574252.6171832301-.5806307416,1.2704758882-1.1433175343,1.8874375881-1.6696733687.5808522718-.5261343042,1.1614830134-1.0343246595,1.742113755-1.5243495356,2.0327614211-1.742113755,4.1014107401-3.4299526028,6.1884470684-5.063073483,2.5588957253-2.014595942,5.1539008787-3.919977479,7.8215679486-5.7892495879,2.3774624642-1.6878388478,4.827586845-3.3027942489,7.2954336444-4.8818617521,10.2716923293-6.5692575395,21.1785118376-12.140742908,32.6659620875-16.6413511286v5.9161864116c11.1790801651-4.555104658,22.9026816437-8.0393321679,35.0615900309-10.3441327156l71.4113783686.4900248762c12.5219964396,2.5041777577,24.5900774311,6.3153838921,36.0414182529,11.2333550723v-5.8253590159c1.4337436702.5806307416,2.8493218612,1.1794269623,4.2649000523,1.8147756715.7075675653.3083700848,1.4153566608.6169616999,2.1231457563.943718794.7077890955.3083700848,1.3974127119.6349056488,2.0870363283.9616627429,1.1978139717.5624652625,2.377240934,1.1433175343,3.5568894265,1.7241698061.7804510121.3991974805,1.5606804939.798394961,2.3411315059,1.1975924414s1.5606804939.798394961,2.3409099757,1.2159794508c.7622855329.4173629596,1.542736545.8347259192,2.3048005477,1.2523104091-58.4720189694,32.2847085559-98.0523827,94.3138384821-98.0523827,165.6162239759Z"/>
    <path class="cls-1" d="m1270.0817002791,1990.3897767865c-.2538736474.0544964374-.4898033459.0908273957-.7438985236.1453238331l-21.7954735375-.1453238331h22.539372061Z"/>
    <path class="cls-1" d="m1269.3378017555,1990.5351006196c-12.1589083871,2.3048005477-23.8825098658,5.7890280577-35.0615900309,10.3441327156v-5.8435244951c4.3375619688-1.6878388478,8.7655082728-3.2485193417,13.2661164934-4.6459320536l21.7954735375.1453238331Z"/>
    <path class="cls-1" d="m1362.4722132753,1991.1700062684l-21.7230331512-.1448807726c-.5987962207-.1453238331-1.2159794508-.272482187-1.8329411507-.3812535316,7.8942298651.1087713446,15.7523503022.2722606568,23.5559743018.5261343042Z"/>
    <path class="cls-1" d="m1376.790598377,1996.4331215521v5.8253590159c-11.4513408219-4.9179711802-23.5194218133-8.7291773146-36.0414182529-11.2333550723l21.7230331512.1448807726h.0542749072c4.8455307939,1.5245710659,9.6002341921,3.3030157791,14.2641101946,5.2631152837Z"/>
  </g>
  <path class="cls-1" d="m1880.1613456293,2439.7893009376h-919.1617577531l38.8334578414-111.2353044862c18.7435147426-53.7748511886,68.870837102-90.2949145713,125.7508350075-92.0421867822l11.3903732172,5.2891428489h335.2236998864l10.0207710397-5.3607164473h229.057384c58.6341681821,0,110.8280673973,36.9749209035,130.0764194386,92.1137603806l38.8088173224,111.2353044862Z"/>
  <path class="cls-1" d="m1482.2187248683,2236.4402360709l-10.0207710397,5.3607164473h-335.2236998864l-11.3903732172-5.2891428489c1.4177098573-.0476183532,2.859766894-.0715735983,4.3012372517-.0715735983h352.3336068916Z"/>
  <path class="cls-6" d="m1129.8851179767,2236.4402360709c-1.4414703577,0-2.8835273944.0239552452-4.3012372517.0715735983l-.1440297-.0715735983h4.4452669517Z"/>
  <path class="cls-3" d="m1397.4154455589,294.2728246934v375.7783352498h-183.7601900309v-375.7783352498c0-.5743416095.0240538399-1.1247279739.0721615197-1.6751143383.1199758601-1.1009187974.3361670798-2.1778823496.6485736591-3.2069354114.1680835399-.5026219426.3364604193-1.0050978167.5529449785-1.4837645142.816657199-1.9863864568,2.0422296765-3.7573217758,3.532394393-5.2171310449,2.9797427541-2.9675290284,7.064788786-4.7863748377,11.6065644369-4.7863748377h150.934618717c9.0594974617,0,16.4129323267,7.3231476589,16.4129323267,16.3693201465Z"/>
  <path class="cls-4" d="m1321.9600164506,277.9035045469c-4.8301283902,0-9.1794733218,2.0820613689-12.1592160758,5.3846716924-2.6916833541,2.9196185381-4.2774767513,6.7488060494-4.2774767513,10.9846484541v375.7783352498h-91.8921219354v-375.7783352498c0-2.2734111931.4564362793-4.4273382974,1.2977339972-6.365814264.816657199-1.9863864568,2.0422296765-3.7573217758,3.532394393-5.2171310449,2.9797427541-2.9675290284,7.064788786-4.7863748377,11.6065644369-4.7863748377h91.8921219354Z"/>
  <path class="cls-4" d="m1483.9969489848,704.9678286544c0,22.2326585364-18.1189949234,40.2772390899-40.4433050784,40.2772390899h-276.0368800654c-22.3480706554,0-40.4670655788-18.0445805534-40.4670655788-40.2772390899,0-22.2566137816,18.1189949234-40.3013404036,40.4670655788-40.3013404036h276.0368800654c22.3483639949,0,40.4433050784,18.044726622,40.4433050784,40.3013404036Z"/>
  <path class="cls-3" d="m1720.718109172,567.1309090718c-46.9898828288,0-85.0810693521-37.9351357709-85.0810693521-84.7323288988v-170.4475369464c0-15.0548188482,12.2530709708-27.257644979,27.3698934344-27.257644979h115.4170851661c15.1168224636,0,27.3698934344,12.2028261308,27.3698934344,27.257644979v170.4475369464c.0054312528,46.7971931279-38.0911865233,84.7323288988-85.0756380993,84.7323288988h-.0001645834Z"/>
  <path class="cls-4" d="m1716.112406771,482.398580173v-170.442168933c0-15.0548188482,12.2530709708-27.257644979,27.3698934344-27.257644979h-80.4753669512c-15.1168224636,0-27.3698934344,12.2028261308-27.3698934344,27.257644979v170.4475369464c0,46.7971931279,38.0911865233,84.7323288988,85.0810693521,84.7323288988,14.5613534241,0,28.2543647288-3.6576249824,40.2376834756-10.0759249892-26.6903284968-14.3028872055-44.8433858765-42.3661644494-44.8433858765-74.6617719229Z"/>
  <path class="cls-3" d="m1992.9710135954,567.1309090718c-46.9898828288,0-85.0810693521-37.9351357709-85.0810693521-84.7323288988v-170.4475369464c0-15.0548188482,12.2530709708-27.257644979,27.3698934344-27.257644979h115.4170851661c15.1168224636,0,27.3698934344,12.2028261308,27.3698934344,27.257644979v170.4475369464c.0054312528,46.7971931279-38.0859198539,84.7323288988-85.0756380993,84.7323288988h-.0001645834Z"/>
  <path class="cls-4" d="m1988.3654757779,482.398580173v-170.442168933c0-15.0548188482,12.2530709708-27.257644979,27.3698934344-27.257644979h-80.4753669512c-15.1168224636,0-27.3698934344,12.2028261308-27.3698934344,27.257644979v170.4475369464c0,46.7971931279,38.0911865233,84.7323288988,85.0810693521,84.7323288988,14.5613534241,0,28.2543647288-3.6576249824,40.2376834756-10.0759249892-26.6903284968-14.3028872055-44.8433858765-42.3661644494-44.8433858765-74.6617719229Z"/>
  <path class="cls-3" d="m2265.2293492716,567.1309090718c-46.9898828288,0-85.0810693521-37.9351357709-85.0810693521-84.7323288988v-170.4475369464c0-15.0548188482,12.2530709708-27.257644979,27.3698934344-27.257644979h115.4170851661c15.1168224636,0,27.3698934344,12.2028261308,27.3698934344,27.257644979v170.4475369464c0,46.7971931279-38.0911865233,84.7323288988-85.0756380993,84.7323288988h-.0001645834Z"/>
  <path class="cls-4" d="m2260.6236468707,482.398580173v-170.442168933c0-15.0548188482,12.2530709708-27.257644979,27.3698934344-27.257644979h-80.4753669512c-15.1168224636,0-27.3698934344,12.2028261308-27.3698934344,27.257644979v170.4475369464c0,46.7971931279,38.0911865233,84.7323288988,85.0810693521,84.7323288988,14.5613534241,0,28.2543647288-3.6576249824,40.2376834756-10.0759249892-26.6903284968-14.3028872055-44.8433858765-42.3661644494-44.8433858765-74.6617719229Z"/>
  <path class="cls-3" d="m430.9139708207,311.9585147752v170.4428839262c0,32.2122091738-18.0468334037,60.2125311881-44.6245664701,74.547700456-.0721615197.0479104903-.1443230395.0718657355-.2164845592.1197762258-6.536190987,3.4939601476-13.600979773,6.1743183713-21.0265761578,7.8735340233-.6966813389.1675406475-1.369308838.3111260499-2.0662835164.4547114523s-1.3939493569.2871708048-2.0909240353.406800962c-1.3936560174.239406383-2.8113658747.4547114523-4.2293690715.646207345-.6966813389.0956749121-1.4174165178.1914958927-2.1384450361.2392603145-.7210285184.0718657355-1.4420570367.1196301572-2.1627922156.1914958927-1.4177098573.0956749121-2.8838207339.1675406475-4.3493449315.2153050693-.3608075987.0239552452-.7210285184.0239552452-1.0815427775.0239552452h-1.1055966174c-3.676424093,0-7.2809800057-.2392603145-10.8136677383-.6700165216-2.6429889953-.3350812951-5.2625108297-.7897927474-7.8336316447-1.364134357-7.7139491242-1.7231708972-15.0430368097-4.4992040329-21.7954190164-8.1368956515-.9134592377-.5024758741-1.8022779564-1.0050978167-2.6916833541-1.5077197594-5.3346723494-3.135069676-10.3091237791-6.8444809615-14.8024984106-11.0086036993-.7450823583-.6939717668-1.4901647165-1.4120448473-2.2108998954-2.1299718592-15.4035510689-15.3402670847-24.9194848099-36.5200633826-24.9194848099-59.9014051382v-170.4428839262c0-4.6905538571,1.2015186376-9.1180382231,3.2921493334-12.9949901561.4326757789-.7658375023.8891120582-1.5077197594,1.3696021775-2.2256467713.5045439591-.7418822571,1.0334350977-1.4358540239,1.5860867367-2.1060166141.5529449785-.6700165216,1.1537042973-1.3162238667,1.7782241165-1.9384759665,4.9501042503-4.9539154852,11.7989951562-7.9933102491,19.3445674009-7.9933102491h115.4176573885c15.1151983295,0,27.3709231045,12.2053434773,27.3709231045,27.2584397572Z"/>
  <path class="cls-3" d="m703.153864254,311.9585147752v170.4428839262c0,32.2122091738-18.0468334037,60.2125311881-44.6242731305,74.547700456-.0721615197.0479104903-.1443230395.0718657355-.2164845592.1197762258-6.536190987,3.4939601476-13.5769259331,6.1743183713-21.0265761578,7.8735340233-.6729208385.1675406475-1.3696021775.3111260499-2.0662835164.4547114523-.6969746784.1435854024-1.369895517.2871708048-2.0909240353.406800962-.6969746784.1196301572-1.3936560174.239406383-2.0906306958.3350812951-1.3936560174.2392603145-2.8116592142.4307562072-4.2531295719.5503863644-.7210285184.0718657355-1.4420570367.1196301572-2.1630855551.1914958927-1.4414703577.0956749121-2.8835273944.1675406475-4.3493449315.2153050693-.3605142592.0239552452-.7207351788.0239552452-1.0815427775.0239552452h-1.1053032779c-3.6767174325,0-7.2812733453-.2392603145-10.8136677383-.6700165216-2.6432823348-.3350812951-5.2625108297-.7897927474-7.8339249842-1.364134357-7.7136557847-1.7231708972-15.0189829698-4.4752487878-21.7954190164-8.1129404064-7.2812733453-3.9248624234-13.9374401923-8.87863184-19.7291355-14.670250563-15.4032577294-15.3402670847-24.9191914704-36.5200633826-24.9191914704-59.9014051382v-170.4428839262c0-15.0530962799,12.2554314355-27.2584397572,27.3703364254-27.2584397572h115.417950728c15.1151983295,0,27.3706297649,12.2053434773,27.3706297649,27.2584397572Z"/>
  <path class="cls-3" d="m975.4178115272,311.9585147752v170.4428839262c0,32.2122091738-18.0465400642,60.2125311881-44.623979791,74.547700456-.0721615197.0479104903-.1443230395.0718657355-.2164845592.1197762258-1.1053032779.5982968547-2.2346603958,1.1726384643-3.3643108531,1.6990695835-.6245198192.2871708048-1.2493329779.5982968547-1.8741461366.8615124143-2.5714141546,1.1727845328-5.2387503293,2.2257928399-7.9301403439,3.1112604994-.552651639.1913498241-1.081249438.3588904717-1.633901077.5264311192-2.0428163555.646207345-4.1334470513,1.2205489546-6.2240777471,1.6752604069-.6969746784.1675406475-1.369895517.3111260499-2.0665768559.4547114523-.6969746784.1435854024-1.3936560174.2871708048-2.0906306958.406800962-1.3939493569.239406383-2.8116592142.4547114523-4.2293690715.646207345-.6969746784.0956749121-1.4180031968.1914958927-2.1387383756.2392603145-.7207351788.0718657355-1.4417636972.1196301572-2.1627922156.1914958927-1.4177098573.0956749121-2.8835273944.1675406475-4.349638271.2153050693-.3602209197.0239552452-.7207351788.0239552452-1.081249438.0239552452h-1.1053032779c-3.6526635926,0-7.2812733453-.2392603145-10.8136677383-.6700165216-2.6673361747-.3350812951-5.2865646696-.7897927474-7.8579788241-1.364134357-7.6896019447-1.7231708972-15.0189829698-4.4992040329-21.771658516-8.1368956515-.9128725586-.5024758741-1.8022779564-1.0050978167-2.6910966751-1.5077197594-5.3346723494-3.135069676-10.3091237791-6.8444809615-14.8027917501-11.0086036993-.7447890188-.6939717668-1.489871377-1.4120448473-2.2108998954-2.1299718592-15.4032577294-15.3402670847-24.9194848099-36.5200633826-24.9194848099-59.9014051382v-170.4428839262c0-15.0530962799,12.2554314355-27.2584397572,27.3706297649-27.2584397572h115.417950728c15.1151983295,0,27.3703364254,12.2053434773,27.3703364254,27.2584397572Z"/>
  <path class="cls-4" d="m930.577347177,557.0688753831c-1.1053032779.5982968547-2.2346603958,1.1726384643-3.3643108531,1.6990695835-.6245198192.2871708048-1.2493329779.5982968547-1.8741461366.8615124143-2.5714141546,1.1727845328-5.2387503293,2.2257928399-7.9301403439,3.1112604994-.552651639.1913498241-1.081249438.3588904717-1.633901077.5264311192-2.0428163555.646207345-4.1334470513,1.2205489546-6.2240777471,1.6752604069-.6969746784.1675406475-1.369895517.3111260499-2.0665768559.4547114523-.6969746784.1435854024-1.3936560174.2871708048-2.0906306958.406800962-1.3939493569.2632155596-2.8116592142.4786666975-4.2293690715.646207345-.6969746784.0956749121-1.4180031968.1914958927-2.1387383756.2392603145-.7207351788.0718657355-1.4417636972.1196301572-2.1627922156.1914958927-1.4177098573.0956749121-2.8835273944.1675406475-4.349638271.2153050693-.7207351788.0479104903-1.4414703577.0479104903-2.186552716.0479104903-14.6584687106,0-28.4281187026-3.6854560403-40.4433050784-10.1710465301-7.2809800057-3.9248624234-13.9374401923-8.87863184-19.7047883206-14.670250563-15.4032577294-15.3402670847-24.9194848099-36.5200633826-24.9194848099-59.9014051382v-170.4428839262c0-15.0530962799,12.2554314355-27.2584397572,27.3706297649-27.2584397572h80.4776948783c-6.8245437264,0-13.072381974,2.4890083995-17.8544026844,6.6291758922h-.0240538399c-5.8154558081,5.0018259756-9.4918799011,12.3966933014-9.4918799011,20.629263865v170.4428839262c0,29.9626071574,15.6197422886,56.2876687647,39.2171459219,71.3648663583,1.8263317963,1.1726384643,3.7007712724,2.2734111931,5.6233184284,3.3026103235Z"/>
  <path class="cls-4" d="m658.3131065642,557.0688753831c-6.536190987,3.4939601476-13.5769259331,6.1743183713-21.0265761578,7.8735340233-.6729208385.1675406475-1.3696021775.3111260499-2.0662835164.4547114523-.6969746784.1435854024-1.369895517.2871708048-2.0909240353.406800962-.6969746784.1196301572-1.3936560174.239406383-2.0906306958.3350812951-1.3936560174.2392603145-2.8116592142.4307562072-4.2531295719.5503863644-.7210285184.0718657355-1.4420570367.1196301572-2.1630855551.1914958927-1.4414703577.0956749121-2.8835273944.1675406475-4.3493449315.2153050693-.7207351788.0479104903-1.4417636972.0479104903-2.1868460555.0479104903-14.6344148707,0-28.4037715231-3.6854560403-40.4430117389-10.147091285v-.0239552452c-7.2812733453-3.9248624234-13.9374401923-8.87863184-19.7291355-14.670250563-15.4032577294-15.3402670847-24.9191914704-36.5200633826-24.9191914704-59.9014051382v-170.4428839262c0-15.0530962799,12.2554314355-27.2584397572,27.3703364254-27.2584397572h80.4776948783c-6.8242503869,0-13.072381974,2.4890083995-17.8544026844,6.6291758922h-.0240538399c-5.8151624686,5.0018259756-9.4918799011,12.3966933014-9.4918799011,20.629263865v170.4428839262c0,29.9626071574,15.6437961285,56.3116240099,39.2414931013,71.3648663583,1.8263317963,1.1726384643,3.6767174325,2.2734111931,5.5989712489,3.3026103235Z"/>
  <path class="cls-4" d="m386.0729197914,557.0688753831c-6.536190987,3.4939601476-13.600979773,6.1743183713-21.0265761578,7.8735340233-.6966813389.1675406475-1.369308838.3111260499-2.0662835164.4547114523s-1.3939493569.2871708048-2.0909240353.406800962c-1.3936560174.2632155596-2.8113658747.4786666975-4.2293690715.646207345-.6966813389.0956749121-1.4174165178.1914958927-2.1384450361.2392603145-.7210285184.0718657355-1.4420570367.1196301572-2.1627922156.1914958927-1.4177098573.0956749121-2.8838207339.1675406475-4.3493449315.2153050693-.7210285184.0479104903-1.4420570367.0479104903-2.187139395.0479104903-14.6341215312,0-28.4275320235-3.6854560403-40.4427183994-10.1710465301-7.2812733453-3.9248624234-13.9377335318-8.87863184-19.7050816601-14.670250563-15.4035510689-15.3402670847-24.9194848099-36.5200633826-24.9194848099-59.9014051382v-170.4428839262c0-4.6905538571,1.2015186376-9.1180382231,3.2921493334-12.9949901561.4326757789-.7658375023.8891120582-1.5077197594,1.3696021775-2.2256467713.5045439591-.7418822571,1.0334350977-1.4358540239,1.5860867367-2.1060166141.5529449785-.6700165216,1.1537042973-1.3162238667,1.7782241165-1.9384759665,4.9501042503-4.9539154852,11.7989951562-7.9933102491,19.3445674009-7.9933102491h80.4536410384c-6.8245437264,0-13.0726753135,2.4890083995-17.8787498638,6.6291758922-5.8151624686,5.0018259756-9.4918799011,12.3966933014-9.4918799011,20.629263865v170.4428839262c0,29.9626071574,15.6437961285,56.2876687647,39.2417864408,71.3648663583,1.8263317963,1.1726384643,3.7004779329,2.2734111931,5.6227317493,3.3026103235Z"/>
  <g>
    <path class="cls-1" d="m1125.583880725,2236.5118096692c-56.8799979055,1.747272211-107.0073202649,38.2673355936-125.7508350075,92.0421867822l-38.8334578414,111.2353044862h-230.1145795981l38.8331645018-111.2353044862c19.2483520413-55.138839477,71.4422512565-92.1137603806,130.0520722592-92.1137603806h225.6696059859l.1440297.0715735983Z"/>
    <path class="cls-5" d="m1129.8851179767,2236.4402360709c-1.4414703577,0-2.8835273944.0239552452-4.3012372517.0715735983l-.1440297-.0715735983h4.4452669517Z"/>
  </g>
  <path class="cls-1" d="m2185.4432949357,2576.9190568926v59.8296854713H657.015372567v-59.8296854713c0-62.4860884497,41.9572302954-115.2080773999,99.365826-131.7450842625h1100.4948566689l23.2852903934-5.3846716924h167.5880894428c76.0321345872,0,137.6938598636,61.3853157209,137.6938598636,137.129755955Z"/>
  <path class="cls-1" d="m1880.1613456293,2439.7893009376l-23.2852903934,5.3846716924H756.381198567c12.1595094153-3.5179153928,25.0154068301-5.3846716924,38.3283272032-5.3846716924h1085.4518198592Z"/>
  <path class="cls-1" d="m756.381198567,2445.17397263c-57.4085957046,16.5370068627-99.365826,69.2589958128-99.365826,131.7450842625v59.8296854713h-231.3882597554v-59.8296854713c0-1.8428010545.0481076798-3.6856021089.0959220201-5.5284031634.1202691996-2.7282687139.3126999189-5.4562452907.5769988184-8.1608508967.2642988995-2.7040213316.6007593188-5.3846716924,1.0334350977-8.0407825337.4323824394-2.8240896946.9850340784-5.624224144,1.6098472371-8.4001112111,1.2496263174-5.5523584085,2.8354197146-10.9609853461,4.7339130306-16.2258808127.961273578-2.6327398704,1.9706548358-5.2412323586,3.0759581137-7.7778591113,1.1053032779-2.560874135,2.2827680756-5.0738377796,3.532394393-7.5385987968.6248131587-1.2445041997,1.2736801573-2.4650531543,1.9466009959-3.6856021089,1.0571955981-1.938329898,2.162498876-3.8529966879,3.3159098338-5.7437082327,1.1537042973-1.8904194076,2.3311690949-3.7332204621,3.5807954124-5.5520662714,1.2493329779-1.8428010544,2.5230131352-3.6376916186,3.8448009724-5.3846716924,1.3217878372-1.770935319,2.6913900146-3.4942522848,4.085046032-5.1933218683,25.2559452292-30.4652291,63.4642965723-49.8978992556,106.2381840667-49.8978992556h167.5880894428l23.3093442334,5.3846716924h2.1868460555Z"/>
  <path class="cls-6" d="m426.3000336501,2563.2298028325c-.2642988995,2.7046056059-.4567296188,5.4325821827-.5769988184,8.1608508967.0962153596-2.7282687139.288646079-5.4562452907.5769988184-8.1608508967Z"/>
  <path class="cls-6" d="m436.7531871292,2522.7851691637c-1.1053032779,2.5366267527-2.1146845357,5.1451192408-3.0759581137,7.7778591113.9372197381-2.6327398704,1.9706548358-5.2412323586,3.0759581137-7.7778591113Z"/>
  <g>
    <path class="cls-1" d="m2341.2530403989,2717.3345915878H308.8314466406c.0726619165-26.423240112.1453238331-53.3001741418.2540951776-80.5942496011h116.5087310303v5.3898305772h1759.8423765068v-5.3898305772h143.6393171773c5.2267843254,26.2054758926,9.2918641072,53.0821883922,12.1770738663,80.5942496011Z"/>
    <rect class="cls-1" x="657.015372567" y="2636.7487423638" width="1528.4279223687" height="5.3846716924"/>
    <path class="cls-1" d="m2387.3486082921,2677.0464387617c0,22.2310019762-18.0932602779,40.2881528261-40.4514206081,40.2881528261h-5.6441472851c-2.885209759-27.5120612088-6.9502895408-54.3887737085-12.1770738663-80.5942496011h17.8212211513c22.3581603302,0,40.4514206081,18.0569293196,40.4514206081,40.306096775Z"/>
  </g>
  <path class="cls-2" d="m296.5606731402,253.3899533329c2.4580942473,1.3067539068,5.0510601144-1.5230404008,3.5461021479-3.8651987629-8.1687051928-12.7135951802-15.9040154687-34.1070098016-3.5798200528-61.6588046284,20.5521171302-45.9451692098,33.0580592062-69.7415649269,33.0580592062-69.7415649269,0,0,6.6518261211,27.7701518285,24.6833384928,52.4617096096,17.3542806594,23.7639201168,26.8531929648,53.6512853266,11.5396423854,78.5492790042-1.4371080551,2.3367875905,1.097055392,5.0938255107,3.5391126157,3.8442176177,18.9558748692-9.6967022636,40.2168773831-29.1472277075,42.6157676574-67.853387348.8844707149-11.8274806076-.4420345809-28.3861090601-7.0749375161-49.2815602944-8.5284966963-26.4831242137-19.0130334315-38.840623433-25.079319962-44.1474414481-1.8145804399-1.5876025969-4.6365821093-.1805106298-4.4877314251,2.2257707297,1.7677116737,28.5752530798-8.9824523825,35.8265978559-15.1013800039,19.4846699989-2.4437010814-6.5272317489-3.8688880312-17.8168760096-3.8688880312-31.5654301723,0-22.8889109949-6.6407206704-46.4509346466-21.281155456-65.5976005303-3.8072119975-4.9791036959-8.2620411722-9.6317212603-13.3731460112-13.5992972198-1.8503563041-1.4366988553-4.5325547807.007401428-4.363137053,2.3437845734,1.1241978663,15.5166771929.1056711862,59.9864935598-38.9084670701,113.1139153296-35.3742891645,49.2815602944-21.6668502663,87.1295760398-16.8028793496,97.3805595012,9.2994784897,19.638025606,22.2708895298,31.1706784591,34.9388394256,37.9063789667Z"/>
  <path class="cls-2" d="m581.0757092197,251.3176907879c2.4580942473,1.3067539068,5.0510601144-1.5230404008,3.5461021479-3.8651987629-8.1687051928-12.7135951802-15.9040154687-34.1070098016-3.5798200528-61.6588046284,20.5521171302-45.9451692098,33.0580592062-69.7415649269,33.0580592062-69.7415649269,0,0,6.6518261211,27.7701518285,24.6833384928,52.4617096096,17.3542806594,23.7639201168,26.8531929648,53.6512853266,11.5396423854,78.5492790042-1.4371080551,2.3367875905,1.097055392,5.0938255107,3.5391126157,3.8442176177,18.9558748692-9.6967022636,40.2168773831-29.1472277075,42.6157676574-67.853387348.8844707149-11.8274806076-.4420345809-28.3861090601-7.0749375161-49.2815602944-8.5284966963-26.4831242137-19.0130334315-38.840623433-25.079319962-44.1474414481-1.8145804399-1.5876025969-4.6365821093-.1805106298-4.4877314251,2.2257707297,1.7677116737,28.5752530798-8.9824523825,35.8265978559-15.1013800039,19.4846699989-2.4437010814-6.5272317489-3.8688880312-17.8168760096-3.8688880312-31.5654301723,0-22.8889109949-6.6407206704-46.4509346466-21.281155456-65.5976005303-3.8072119975-4.9791036959-8.2620411722-9.6317212603-13.3731460112-13.5992972198-1.8503563041-1.4366988553-4.5325547807.007401428-4.363137053,2.3437845734,1.1241978663,15.5166771929.1056711862,59.9864935598-38.9084670701,113.1139153296-35.3742891645,49.2815602944-21.6668502663,87.1295760398-16.8028793496,97.3805595012,9.2994784897,19.638025606,22.2708895298,31.1706784591,34.9388394256,37.9063789667Z"/>
  <path class="cls-2" d="m859.2777031512,252.3562887473c2.4580942473,1.3067539068,5.0510601144-1.5230404008,3.5461021479-3.8651987629-8.1687051928-12.7135951802-15.9040154687-34.1070098016-3.5798200528-61.6588046284,20.5521171302-45.9451692098,33.0580592062-69.7415649269,33.0580592062-69.7415649269,0,0,6.6518261211,27.7701518285,24.6833384928,52.4617096096,17.3542806594,23.7639201168,26.8531929648,53.6512853266,11.5396423854,78.5492790042-1.4371080551,2.3367875905,1.097055392,5.0938255107,3.5391126157,3.8442176177,18.9558748692-9.6967022636,40.2168773831-29.1472277075,42.6157676574-67.853387348.8844707149-11.8274806076-.4420345809-28.3861090601-7.0749375161-49.2815602944-8.5284966963-26.4831242137-19.0130334315-38.840623433-25.079319962-44.1474414481-1.8145804399-1.5876025969-4.6365821093-.1805106298-4.4877314251,2.2257707297,1.7677116737,28.5752530798-8.9824523825,35.8265978559-15.1013800039,19.4846699989-2.4437010814-6.5272317489-3.8688880312-17.8168760096-3.8688880312-31.5654301723,0-22.8889109949-6.6407206704-46.4509346466-21.281155456-65.5976005303-3.8072119975-4.9791036959-8.2620411722-9.6317212603-13.3731460112-13.5992972198-1.8503563041-1.4366988553-4.5325547807.007401428-4.363137053,2.3437845734,1.1241978663,15.5166771929.1056711862,59.9864935598-38.9084670701,113.1139153296-35.3742891645,49.2815602944-21.6668502663,87.1295760398-16.8028793496,97.3805595012,9.2994784897,19.638025606,22.2708895298,31.1706784591,34.9388394256,37.9063789667Z"/>
  <path class="cls-2" d="m2357.28013117,214.4499097965c4.8639709172-10.2509834612,18.5714098171-48.0989992059-16.8028793452-97.3805595019-39.014138254-53.1274217715-40.032664932-97.5972381386-38.908467065-113.1139153314.1694177278-2.3363831454-2.5127807487-3.7804834288-4.3631370528-2.3437845736-5.1111048392,3.9675759593-9.5659340142,8.6201935234-13.3731460119,13.5992972192-14.6404347864,19.146665883-21.2811554579,42.7086895344-21.2811554589,65.5976005293-.0000000006,13.7485541626-1.425186951,25.0381984233-3.8688880326,31.5654301721-6.1189276222,16.3419278567-16.869091678,9.0905830802-15.101380003-19.4846699996.1488506842-2.4062813596-2.673150985-3.8133733267-4.487731425-2.2257707299-6.0662865308,5.3068180148-16.5508232665,17.6643172336-25.079319964,44.147441447-6.6329029361,20.895451234-7.9594082327,37.4540796864-7.0749375183,49.2815602941,2.3988902726,38.7061596406,23.6598927857,58.1566850855,42.6157676544,67.85338735,2.4420572237,1.2496078931,4.9762206708-1.507430027,3.5391126159-3.8442176176-15.3135505783-24.8979936783-5.8146382715-54.7853588876,11.5396423889-78.5492790037,18.0315123728-24.6915577803,24.6833384951-52.4617096085,24.6833384951-52.4617096085,0,0,12.505942075,23.7963957177,33.0580592031,69.7415649284,12.3241954146,27.5517948274,4.5888851377,48.9452094484-3.5798200556,61.6588046283-1.5049579666,2.342158362,1.0880079004,5.1719526697,3.5461021477,3.865198763,12.6679498961-6.735700507,25.6393609368-18.2683533596,34.9388394273-37.9063789651Z"/>
  <path class="cls-2" d="m2085.0245937022,214.4499097843c4.8639709172-10.2509834612,18.5714098171-48.0989992059-16.8028793452-97.3805595019-39.014138254-53.1274217715-40.032664932-97.5972381386-38.908467065-113.1139153314.1694177278-2.3363831454-2.5127807487-3.7804834288-4.3631370529-2.3437845736-5.1111048392,3.9675759593-9.5659340142,8.6201935234-13.3731460119,13.5992972192-14.6404347864,19.146665883-21.2811554579,42.7086895344-21.2811554589,65.5976005293-.0000000006,13.7485541626-1.425186951,25.0381984233-3.8688880326,31.5654301721-6.1189276222,16.3419278567-16.869091678,9.0905830802-15.101380003-19.4846699996.1488506842-2.4062813596-2.673150985-3.8133733267-4.487731425-2.2257707299-6.0662865308,5.3068180148-16.5508232665,17.6643172336-25.079319964,44.147441447-6.6329029361,20.895451234-7.9594082327,37.4540796864-7.0749375183,49.2815602941,2.3988902726,38.7061596406,23.6598927857,58.1566850855,42.6157676544,67.85338735,2.4420572237,1.2496078931,4.9762206708-1.507430027,3.5391126159-3.8442176176-15.3135505783-24.8979936783-5.8146382715-54.7853588876,11.5396423889-78.5492790037,18.0315123728-24.6915577803,24.6833384951-52.4617096085,24.6833384951-52.4617096085,0,0,12.505942075,23.7963957177,33.0580592031,69.7415649284,12.3241954146,27.5517948274,4.5888851377,48.9452094484-3.5798200556,61.6588046283-1.5049579666,2.342158362,1.0880079004,5.1719526697,3.5461021477,3.865198763,12.6679498961-6.735700507,25.6393609368-18.2683533596,34.9388394273-37.9063789651Z"/>
  <path class="cls-2" d="m1792.6530121244,214.4499097712c4.8639709172-10.2509834612,18.5714098171-48.0989992059-16.8028793452-97.3805595019-39.014138254-53.1274217715-40.032664932-97.5972381386-38.908467065-113.1139153314.1694177278-2.3363831454-2.5127807487-3.7804834288-4.3631370528-2.3437845736-5.1111048392,3.9675759593-9.5659340142,8.6201935234-13.3731460119,13.5992972192-14.6404347864,19.146665883-21.2811554579,42.7086895344-21.2811554589,65.5976005293-.0000000006,13.7485541626-1.425186951,25.0381984233-3.8688880326,31.5654301721-6.1189276222,16.3419278567-16.869091678,9.0905830802-15.101380003-19.4846699996.1488506842-2.4062813596-2.673150985-3.8133733267-4.487731425-2.2257707299-6.0662865308,5.3068180148-16.5508232665,17.6643172336-25.079319964,44.147441447-6.6329029361,20.895451234-7.9594082327,37.4540796864-7.0749375183,49.2815602941,2.3988902726,38.7061596406,23.6598927857,58.1566850855,42.6157676544,67.85338735,2.4420572236,1.2496078931,4.9762206708-1.507430027,3.5391126159-3.8442176176-15.3135505783-24.8979936783-5.8146382715-54.7853588876,11.5396423889-78.5492790037,18.0315123728-24.6915577803,24.6833384951-52.4617096085,24.6833384951-52.4617096085,0,0,12.505942075,23.7963957177,33.0580592031,69.7415649284,12.3241954146,27.5517948274,4.5888851377,48.9452094484-3.5798200556,61.6588046283-1.5049579666,2.342158362,1.0880079003,5.1719526697,3.5461021477,3.865198763,12.6679498961-6.735700507,25.6393609368-18.2683533596,34.9388394273-37.9063789651Z"/>
  <path class="cls-2" d="m1271.4972413518,252.3562887473c2.4580942473,1.3067539068,5.0510601144-1.5230404008,3.5461021479-3.8651987629-8.1687051928-12.7135951802-15.9040154687-34.1070098016-3.5798200528-61.6588046284,20.5521171302-45.9451692098,33.0580592062-69.7415649269,33.0580592062-69.7415649269,0,0,6.6518261211,27.7701518285,24.6833384928,52.4617096096,17.3542806594,23.7639201168,26.8531929648,53.6512853266,11.5396423854,78.5492790042-1.4371080551,2.3367875905,1.097055392,5.0938255107,3.5391126157,3.8442176177,18.9558748692-9.6967022636,40.2168773831-29.1472277075,42.6157676574-67.853387348.8844707149-11.8274806076-.4420345809-28.3861090601-7.0749375161-49.2815602944-8.5284966963-26.4831242137-19.0130334315-38.840623433-25.079319962-44.1474414481-1.8145804399-1.5876025969-4.6365821093-.1805106298-4.4877314251,2.2257707297,1.7677116737,28.5752530798-8.9824523825,35.8265978559-15.1013800039,19.4846699989-2.4437010814-6.5272317489-3.8688880312-17.8168760096-3.8688880312-31.5654301723,0-22.8889109949-6.6407206705-46.4509346466-21.281155456-65.5976005303-3.8072119975-4.9791036959-8.2620411722-9.6317212603-13.3731460112-13.5992972198-1.8503563041-1.4366988553-4.5325547807.007401428-4.363137053,2.3437845734,1.1241978663,15.5166771929.1056711862,59.9864935598-38.9084670701,113.1139153296-35.3742891645,49.2815602944-21.6668502663,87.1295760398-16.8028793496,97.3805595012,9.2994784897,19.638025606,22.2708895298,31.1706784591,34.9388394256,37.9063789667Z"/>
</svg>